<?xml version="1.0" encoding="UTF-8" standalone="no"?>
<svg id="svg4186" xmlns:rdf="http://www.w3.org/1999/02/22-rdf-syntax-ns#" xmlns="http://www.w3.org/2000/svg" height="196" viewBox="0 0 482 196" width="482" version="1.1" xmlns:cc="http://creativecommons.org/ns#" xmlns:dc="http://purl.org/dc/elements/1.1/">
<path id="path4196" d="m211.69 195.03c-5.9414-1.1496-10.16-5.0898-12.08-11.282-0.88855-2.8661-4.4407-2.0078-9.5619 2.3104-7.1366 6.0177-20.691 8.8799-27.455 5.7977-2.0671-0.94184-2.995-0.81047-5.2971 0.75-3.9933 2.7068-25.458 2.7975-29.392 0.12412-2.3663-1.6079-2.8636-1.6311-5.5-0.25616-6.9795 3.6398-24.478 1.0267-30.904-4.6149-2.7139-2.3828-4.8508-3.2256-9.7359-3.8399-15.174-1.91-23.475-6.85-28.26-16.83-2.244-4.68-3.63-6.4-5.5-6.81-17.725-3.86-28-14.64-28-29.36v-7.0494l-7.3767-7.3767c-4.6425-4.64-8.3594-9.45-10.029-12.98l-2.6526-5.61 2.6526-5.607c1.6696-3.529 5.3865-8.341 10.029-12.984l7.377-7.377v-7.049c0-14.725 10.275-25.501 28-29.365 1.8698-0.40764 3.2563-2.1227 5.5-6.8034 4.7851-9.9823 13.086-14.928 28.259-16.836 4.8851-0.61422 7.022-1.457 9.7359-3.8399 6.4254-5.6416 23.924-8.2547 30.904-4.6149 2.6364 1.3749 3.1337 1.3517 5.5-0.25616 3.9343-2.6733 25.399-2.5827 29.392 0.12412 2.3021 1.5605 3.2299 1.6918 5.2971 0.75 6.8029-3.0996 20.318-0.22057 27.536 5.8659 5.291 4.4614 9.0636 5.0399 9.7323 1.4923 2.34-12.417 26.69-15.743 37.89-5.1747l3.25 3.067 3.25-3.067c11.2-10.568 35.55-7.2428 37.89 5.1747 0.66869 3.5476 4.4414 2.9692 9.7323-1.4923 7.2182-6.0865 20.733-8.9655 27.536-5.8659 2.0671 0.94184 2.995 0.81047 5.2971-0.75 3.9933-2.7068 25.458-2.7975 29.392-0.12412 2.3663 1.6079 2.8636 1.6311 5.5 0.25616 6.9795-3.6398 24.478-1.0267 30.904 4.6149 2.7139 2.3828 4.8508 3.2257 9.7359 3.8399 15.173 1.9077 23.474 6.8532 28.259 16.836 2.2437 4.6806 3.6302 6.3957 5.5 6.8034 17.725 3.8644 28 14.641 28 29.365v7.0494l7.3767 7.3767c4.6429 4.6429 8.3597 9.4547 10.029 12.984l2.65 5.607-2.6526 5.6072c-1.6696 3.5292-5.3864 8.341-10.029 12.984l-7.38 7.38v7.0494c0 14.725-10.275 25.501-28 29.365-1.8698 0.40764-3.2563 2.1227-5.5 6.8034-4.7851 9.9823-13.086 14.928-28.259 16.836-4.8851 0.61421-7.022 1.457-9.7359 3.8399-6.4254 5.6416-23.924 8.2547-30.904 4.6149-2.6364-1.3749-3.1337-1.3517-5.5 0.25616-3.9343 2.6734-25.399 2.5827-29.392-0.12412-2.3021-1.5605-3.2299-1.6918-5.2971-0.75-6.8029 3.0996-20.318 0.22057-27.536-5.8659-5.291-4.4614-9.0636-5.0399-9.7323-1.4922-2.3406 12.417-26.694 15.743-37.893 5.1747l-3.25-3.067-3.25 3.0484c-6.0318 5.6576-15.024 7.5122-26.065 5.3759zm13.781-6.4532c14.427-6.028 11.303-29.458-5.4788-41.088-15.684-10.869-20.921-24.757-12.508-33.17 9.9544-9.9544 27.987 1.7057 19.573 12.656-2.0856 2.7143-8.9378 3.5369-11.138 1.3371-1.79-1.79-0.13-3.32 3.6-3.32 6.5748 0 6.5446-7.9408-0.0365-9.5925-11.949-2.999-15.372 14.623-3.898 20.068 13.177 6.253 26.633-10.506 19.483-24.265-7.3857-14.212-31.621-13.726-39.4 0.78984-7.4154 13.836-3.9757 22.632 17.206 44 14.626 14.754 17.2 20.438 12.201 26.942-3.4327 4.4663-14.042 3.1281-15.367-1.9383-0.83871-3.2072 1.7804-4.466 4.1036-1.9723 4.7025 5.0475 10.696-1.179 6.53-6.7837-3.962-5.3302-11.75-3.8392-14.627 2.8-4.3777 10.105 7.8673 18.495 19.748 13.531zm47.195-1.0922c1.3783-0.90312 3.1459-3.1734 3.9279-5.045 3.9687-9.4984-8.914-18.292-14.934-10.193-4.1661 5.6047 1.8275 11.831 6.53 6.7837 2.3232-2.4937 4.9423-1.2349 4.1036 1.9723-1.3249 5.0664-11.934 6.4046-15.367 1.9383-4.9991-6.5042-2.425-12.188 12.201-26.942 21.182-21.368 24.622-30.164 17.206-44-7.7797-14.516-32.015-15.002-39.4-0.78984-7.1504 13.759 6.3054 30.518 19.483 24.265 11.474-5.4448 8.0512-23.067-3.898-20.068-6.581 1.6517-6.6112 9.5925-0.0365 9.5925 3.7311 0 5.3955 1.5283 3.6094 3.3144-2.1998 2.1998-9.052 1.3772-11.138-1.3371-8.4141-10.95 9.6187-22.611 19.573-12.656 8.4129 8.4129 3.1758 22.301-12.508 33.17-8.862 6.1414-16.466 19.76-15.104 27.051 2.406 12.879 15.673 19.548 25.752 12.944zm-121.78-0.55295c3.2157-1.9605 3.3483-2.2706 2.7713-6.4805-0.33332-2.4318-0.90848-8.7241-1.2781-13.983-0.75373-10.723-0.47263-10.357-9.5856-12.457-10.367-2.3878-20.605 20.268-13.92 30.803 2.6081 4.11 16.545 5.4505 22.013 2.1173zm-13.51-5.022c-3.877-1.1237-4.579-3.4785-2.8824-9.6675 2.2673-8.2703 4.455-12.481 6.1472-11.832 0.84243 0.32327 2.3369 0.58777 3.3211 0.58777 1.5542 0 1.8838 1.332 2.508 10.136 0.8756 12.35-0.0162 13.407-9.0938 10.776zm212.89 5.0484c5.9001-2.757 5.9362-14.157 0.0839-26.517-3.6092-7.6226-4.2759-8.0079-11.128-6.4296-9.113 2.0991-8.8319 1.7338-9.5856 12.457-0.36965 5.2587-0.94481 11.551-1.2781 13.983-1.0577 7.7169 11.4 11.417 21.908 6.5069zm-14.1-4.85c-2.26-1.43-0.5-21.12 1.89-21.12 0.98417 0 2.4787-0.2645 3.3211-0.58777 2.4386-0.93579 8.0761 14.173 6.9274 18.566-0.76143 2.9117-9.0946 5.0693-12.135 3.1421zm-216.07 3.0171c0.91786-1.1335 2.1982-5.6812 2.8452-10.106 0.64698-4.4247 2.2763-11.077 3.6206-14.784 3.6562-10.08 3.5306-10.502-4.3066-14.484-8.0958-4.1129-8.3146-4.0682-15.123 3.088-13.174 13.848-18.901 28.881-12.844 33.72 6.4458 5.1496 22.429 6.7387 25.808 2.5658zm-10.09-3.87c-14.01-1.8957-14.245-9.4982-0.77321-25.04 6.0191-6.9438 5.7507-6.8204 9.6601-4.443l2.9352 1.785-1.8704 5.3112c-1.0287 2.9212-2.3923 8.8808-3.0303 13.244-1.2337 8.4372-2.2468 9.7755-6.9214 9.143zm273.16 3.5685c11.474-4.9359 8.366-18.404-8.3031-35.985-6.7849-7.1558-7.0079-7.2014-15.105-3.088-7.8305 3.9781-7.9604 4.4107-4.3303 14.419 1.3314 3.6706 2.9527 10.194 3.6029 14.496 2.0935 13.851 8.8963 16.714 24.135 10.158zm-15.574-4.2176c-0.80407-0.62554-1.9395-4.522-2.5754-8.8384-0.62557-4.2458-1.9686-10.08-2.9846-12.965l-1.8472-5.2453 2.9352-1.785c3.9094-2.3774 3.641-2.5008 9.6601 4.443 5.667 6.5376 11.592 17.658 10.677 20.041-1.1857 3.09-13.237 6.3943-15.865 4.35zm-188.16 2.008c6.8585-5.2313 7.2762-6.7389 3.85-13.896-1.6405-3.4268-3.5703-7.7359-4.2884-9.5757l-1.3058-3.3451-5.5893 0.74074c-3.0741 0.40741-6.9885 0.66539-8.6987 0.57328-6.68-0.35975-8.9516 12.642-4.2311 24.217 2.2753 5.5793 13.685 6.3032 20.263 1.2856zm-13.191-3.4199c-2.4478-1.6356-4.1526-11.215-2.4664-13.859 1.1639-1.825 10.227-2.8946 10.266-1.2116 0.0172 0.74995 1.084 3.5118 2.3707 6.1375l2.3394 4.774-2.7865 1.9842c-3.276 2.3328-7.929 3.3734-9.7231 2.1746zm153.05 5.8773c8.437-3.2077 7.8335-28.418-0.66931-27.96-1.7102 0.0921-5.6272-0.16619-8.7044-0.57399l-5.595-0.74145-2.3065 5.8458c-1.2686 3.2152-3.1708 7.3015-4.2272 9.0807-5.0248 8.4626 10.223 18.638 21.502 14.349zm-9.29-5.81c-0.825-0.31-2.6793-1.3887-4.1207-2.3971l-2.6207-1.8334 2.3394-4.774c1.2867-2.6257 2.3535-5.3876 2.3707-6.1375 0.0386-1.683 9.102-0.61338 10.266 1.2116 3.9224 6.1502-2.0504 16.254-8.2347 13.93zm-224.39-4.54c0.63581-0.68097 1.931-3.6332 2.8782-6.5604 1.9714-6.0924 9.3431-17.547 16.201-25.175 4.0152-4.4659 4.4525-5.345 3.0494-6.1302-0.90092-0.50419-2.2228-1.4721-2.9374-2.151-8.137-7.73-8.609-7.76-21.3-1.49-14.196 7.01-26.5 18.33-26.5 24.39 0 12.376 21.195 25.058 28.608 17.118zm-14.749-6.9c-9.5071-5.5128-9.3293-10.398 0.68706-18.881 19.156-16.224 32.999-17.45 21.47-1.9017-6.5411 8.822-8.9937 13.117-10.958 19.19-1.4622 4.521-5.226 5.0562-11.199 1.5925zm343.89 5.5658c17.555-10.288 10.884-26.786-16.247-40.182-12.691-6.2666-13.163-6.2335-21.299 1.4957-0.71465 0.67885-2.0365 1.6468-2.9374 2.151-1.4032 0.78524-0.96589 1.6643 3.0494 6.1302 6.8399 7.6076 14.224 19.071 16.215 25.175 0.95518 2.9272 2.1598 5.8578 2.677 6.5122 2.4219 3.065 12.289 2.383 18.542-1.2816zm-14.81-7.16c-1.9642-6.0731-4.4169-10.368-10.958-19.19-11.528-15.548 2.314-14.322 21.47 1.9017 8.8555 7.5 9.1774 8.1421 6.4845 12.933-4.6069 8.1969-14.901 10.835-16.997 4.3551zm-197.84 3.4801c7.5289-5.0297 7.9846-11.056 1.2847-16.993-5.2726-4.6723-5.9131-4.9018-9.052-3.243-1.5592 0.82398-4.5224 2.152-6.5849 2.9512-4.3399 1.6816-4.8298 4.2433-2.2237 11.63 2.9646 8.4024 9.2524 10.548 16.576 5.6554zm-10.004-6.8793c-1.53-4.389-1.4824-4.5211 2.0779-5.7622 6.4084-2.234 9.7295 4.3577 3.7528 7.4484-3.9738 2.0549-4.5884 1.8772-5.8306-1.6862zm101.22 7.3496c5.5012-6.0788 6.0105-15.787 0.93132-17.755-2.0625-0.79916-5.0257-2.1272-6.5849-2.9512-3.1389-1.6588-3.7794-1.4293-9.052 3.243-4.9856 4.418-5.9048 7.1743-3.7941 11.377 3.4798 6.9282 14.467 10.543 18.5 6.0869zm-9.4501-5.7102c-5.7668-3.1334-2.317-9.5882 3.9557-7.4016 3.5603 1.2411 3.6079 1.3732 2.0779 5.7622-1.2158 3.4877-2.1598 3.7442-6.0336 1.6394zm-231.78-13.54c1.0767-0.57622 3.7932-3.0391 6.0367-5.473s6.0572-5.675 8.4749-7.2023c2.4177-1.5274 4.3965-3.0823 4.3975-3.4554 0-0.37 4.276-3.23 9.501-6.35 11.113-6.63 11.016-6.3 4.133-13.72-5.875-6.33-6.944-6.63-16.834-4.73-2.914 0.56-7.774 1.49-10.799 2.08-6.782 1.3178-22.524 6.5542-26.273 8.7398-7.9609 4.6402-4.3832 22.087 5.6269 27.44 6.2833 3.3603 12.48 4.4117 15.735 2.6697zm-11.866-8.26c-6.366-4.26-9.696-14.32-5.473-16.54 3.3075-1.7374 19.755-6.981 25.25-8.0497 17.474-3.3987 16.479-3.4148 19.198 0.31042 1.6804 2.3026 1.6485 2.3538-3.0646 4.919-5.8524 3.1853-12.565 8.3597-20.652 15.919-6.9473 6.4942-9.7509 7.1267-15.259 3.4424zm405.28 5.6513c10.226-5.7154 13.815-22.814 5.7724-27.501-3.7497-2.1856-19.491-7.422-26.273-8.7398-22.34-4.3409-21.031-4.4664-27.633 2.6476-6.8825 7.4154-6.9796 7.093 4.1332 13.724 5.225 3.1179 9.5008 5.9742 9.5018 6.3473 0.00098 0.37315 1.9799 1.9281 4.3975 3.4554s6.2184 4.7544 8.4461 7.1712c6.8278 7.4072 12.279 8.1361 21.655 2.8955zm-19.06-9.1126c-7.8464-7.4212-14.636-12.668-20.574-15.9-4.7132-2.5652-4.7451-2.6164-3.0646-4.919 2.7187-3.7252 1.724-3.7091 19.198-0.31042 5.4948 1.0687 21.943 6.3123 25.25 8.0497 4.3419 2.2808 0.60579 12.966-5.8693 16.787-5.6586 3.3386-8.1428 2.7222-14.94-3.7068zm-246.47 8.1109c11.827-3.2988 14.565-5.7883 11.192-10.173-1.7713-2.3026-1.8608-2.3123-7.2278-0.78275-18.349 5.2294-41.697 2.6974-55.163-5.9825-2.05-1.32-3.95-2.4-4.23-2.4-6.45 0-31.53-27.31-29.623-32.25 1.854-4.807 26.343-27.75 29.623-27.75 0.27802 0 2.1834-1.0815 4.2341-2.4033 13.466-8.6798 36.814-11.212 55.163-5.9825 5.367 1.5296 5.4564 1.5199 7.2278-0.78275 2.6147-3.3989 2.2771-4.5668-1.9421-6.7193-28.562-14.571-71.463-0.99936-101.28 32.041-13.318 14.756-13.318 12.937 0 27.693 18.593 20.6 41.319 33.521 66.064 37.559 4.5638 0.74482 20.418-0.51497 25.97-2.0636zm157.66 0.22411c20.739-5.6088 40.614-18.188 56.438-35.72 13.318-14.756 13.318-12.937 0-27.693-29.821-33.041-72.722-46.612-101.28-32.041-4.2192 2.1525-4.5568 3.3204-1.9421 6.7193 1.7713 2.3026 1.8608 2.3123 7.2278 0.78275 18.349-5.2294 41.697-2.6974 55.163 5.9825 2.04 1.329 3.94 2.41 4.22 2.41 3.2774 0 27.766 22.943 29.62 27.75 1.9068 4.9445-23.172 32.25-29.62 32.25-0.27802 0-2.1834 1.0815-4.2341 2.4033-13.466 8.6798-36.814 11.212-55.163 5.9825-5.367-1.5296-5.4564-1.5199-7.2278 0.78275-2.6128 3.3964-2.2765 4.5704 1.912 6.6758 11.755 5.9089 30.914 7.4978 44.877 3.7217zm-158.63-15.09c5.6078-1.6698 8.9277-3.8718 7.6954-5.1041-0.37703-0.37703-2.3752-0.18976-4.4405 0.41616-27.495 8.0667-56.868-1.2004-74.235-23.421-15.417-19.725 39.332-46.375 74.235-36.135 4.1294 1.2115 5.663 0.58924 3.8705-1.5706-3.9746-4.7891-26.712-6.6664-39.879-3.2926-20.46 5.239-50.534 29.161-46.378 36.888 12.478 23.2 53.418 39.87 79.128 32.22zm157.31-0.001c19.974-5.0963 49.922-29.092 45.821-36.715-13.659-25.394-72.776-45.338-86.253-29.099-1.7925 2.1598-0.25895 2.7821 3.8705 1.5706 27.495-8.0667 56.868 1.2004 74.235 23.421 10.957 14.019-23.061 38.714-53.48 38.824-7.987 0.029-12.598-0.58731-22.881-3.0582-3.7187-0.89363-3.2055 1.4896 0.73428 3.4098 8.759 4.269 24.925 4.9702 37.953 1.6462zm-162.72-7.4775c4.3505-1.1068 9.1292-2.9068 10.619-4 1.4902-1.0932 3.1712-1.9877 3.7356-1.9877 0.56436 0 2.4426-2.8125 4.1739-6.25s3.9878-7.3232 5.0144-8.6349c1.07-1.36 1.87-4 1.87-6.12 0-2.123-0.8-4.758-1.87-6.115-1.02-1.312-3.28-5.197-5.01-8.635s-3.61-6.25-4.17-6.25c-0.56435 0-2.2454-0.89657-3.7356-1.9924-16.428-12.08-47.564-4.5892-68.182 16.404l-6.4721 6.5901 6.9721 7.0368c17.711 17.875 37.719 24.87 57.062 19.949zm-18.09-2.6c-13.426-1.8947-28.459-9.6566-38.481-19.868l-4.44-4.52 4.44-4.519c15.85-16.154 39.9-23.711 58-18.23 36.26 10.976 19.03 52.579-19.52 47.139zm7.6574-5.4802c30.113-4.6722 30.098-33.171-0.02-37.845-12.985-2.015-33.088 5.6092-43.062 16.332l-2.43 2.603 2.4243 2.6062c5.8545 6.2938 19.487 13.705 29.063 15.801 3.4988 0.76565 6.5003 1.4373 6.67 1.4925 0.16964 0.0552 3.4767-0.39116 7.349-0.99196zm-15.66-4.54c-10.72-2.64-27.45-11.4-27.45-14.37 0-9.4865 39.44-18.511 52.442-12 21.51 10.772 0.72748 32.696-24.992 26.365zm20.58-5.6889c19.22-10.167-0.74-24.042-26.08-18.135-5.99 1.396-17 7.519-17 9.455 0 7.54 32.754 14.137 43.08 8.6762zm159.49 19.255c14.227-2.562 27.009-9.6553 38.405-21.312l6.46-6.63-6.47-6.589c-20.62-20.993-51.75-28.483-68.18-16.403-1.49 1.095-3.17 1.992-3.74 1.992-0.56436 0-2.4426 2.8125-4.1739 6.25s-3.9878 7.3232-5.0144 8.6349c-1.06 1.357-1.86 3.992-1.86 6.115s0.80427 4.7578 1.8666 6.1151c1.0266 1.3117 3.2831 5.1974 5.0144 8.6349s3.6095 6.25 4.1739 6.25c0.56435 0 2.2454 0.89571 3.7356 1.9905 6.0566 4.4493 19.822 6.7335 29.776 4.941zm-17.198-4.3713c-29.695-6.7136-31.959-37.659-3.3882-46.309 18.103-5.4808 42.147 2.0762 58.001 18.23l4.44 4.509-4.4355 4.5194c-14.929 15.211-37.202 22.977-54.612 19.041zm21.735-5.0821c10.309-2.1685 23.707-9.2997 29.82-15.872l2.43-2.62-2.43-2.606c-16.156-17.368-46.163-21.917-59.661-9.0437-13.997 13.348-3.8568 27.944 21.922 31.554 0.37655 0.0527 3.9402-0.58896 7.9193-1.426zm-20.6-5.51c-22.006-8.9894-10.46-29.253 15.784-27.7 13.038 0.77145 34.667 9.9578 34.667 14.724 0 8.6391-37.473 18.278-50.45 12.977zm28.5-3.52c5.99-1.4 17-7.524 17-9.46 0-7.547-32.74-14.142-43.08-8.676-19.22 10.163 0.74 24.036 26.08 18.136zm-302.3 6.0067c8.3865-3.132 18.353-5.7553 28.607-7.5301 7.1707-1.2411 7.755-1.5194 7.1202-3.392-0.88382-2.6072-0.88382-6.4728 0-9.08 0.6348-1.8726 0.0505-2.151-7.1202-3.392-10.25-1.783-20.216-4.406-28.602-7.538-11.635-4.345-21.331-0.615-29.162 11.217l-2.8088 4.245 2.8089 4.2445c7.8304 11.833 17.527 15.563 29.161 11.218zm-13.71-6.13c-12.136-6.63-12.234-12.064-0.333-18.471l4.8874-2.6309 6.4778 2.4212c6.504 2.431 17.59 5.419 25.978 7.001 2.942 0.555 4.5 1.365 4.5 2.34 0 0.97475-1.5582 1.785-4.5 2.3399-8.4269 1.5896-19.486 4.5723-26.01 7.0154l-6.5103 2.4377-4.4897-2.4528zm437.11 5.8679c6.62-3.895 9.1798-6.1667 12.354-10.964l2.82-4.25-2.81-4.245c-7.8304-11.833-17.527-15.563-29.161-11.218-8.3865 3.132-18.353 5.7553-28.607 7.5301-7.1707 1.2411-7.755 1.5194-7.1202 3.392 0.38035 1.122 0.69154 3.165 0.69154 4.54s-0.31119 3.418-0.69154 4.54c-0.6348 1.8726-0.0505 2.151 7.1202 3.392 10.335 1.7886 20.34 4.4319 28.312 7.479 8.3066 3.1753 11.424 3.1383 17.103-0.20298zm-14.125-5.8674c-6.51-2.43-17.59-5.42-25.98-7-2.94-0.555-4.5-1.365-4.5-2.34 0-0.97475 1.5582-1.785 4.5-2.3399 8.3876-1.5822 19.474-4.5697 25.978-7.0008l6.4778-2.4212 4.8874 2.6309c4.61 2.479 9.66 7.256 9.66 9.131 0 1.8752-5.0522 6.6522-9.657 9.1309l-4.8874 2.6309-6.4778-2.4212zm-217.66-15.84c15.761-12.371 3.8202-39.305-13.733-30.975-11.474 5.4448-8.0512 23.067 3.898 20.068 6.59-1.652 6.62-9.593 0.04-9.593-3.7311 0-5.3955-1.5283-3.6094-3.3144 2.1998-2.1998 9.052-1.3772 11.138 1.3371 8.4141 10.95-9.6187 22.611-19.573 12.656-8.4129-8.4129-3.1758-22.301 12.508-33.17 8.862-6.1414 16.466-19.76 15.104-27.051-2.9913-16.012-23.959-21.592-29.68-7.8991-3.9687 9.4984 8.914 18.292 14.934 10.193 4.1661-5.6047-1.8275-11.831-6.53-6.7837-2.3232 2.4937-4.9423 1.2349-4.1036-1.9723 1.3249-5.0664 11.934-6.4046 15.367-1.9383 4.9991 6.5042 2.425 12.188-12.201 26.942-21.175 21.36-24.606 30.126-17.223 44 5.8142 10.926 24.11 15.002 33.668 7.5zm50.447-0.04891c16.5-11.741 13.28-27.314-10.65-51.451-14.62-14.754-17.2-20.438-12.2-26.942 3.4327-4.4663 14.042-3.1281 15.367 1.9383 0.83871 3.2072-1.7804 4.466-4.1036 1.9723-4.7025-5.0475-10.696 1.179-6.53 6.7837 6.0197 8.0984 18.902-0.69508 14.934-10.193-5.7213-13.693-26.689-8.1127-29.68 7.8991-1.3621 7.291 6.242 20.91 15.104 27.051 15.684 10.869 20.921 24.757 12.508 33.17-9.9544 9.9544-27.987-1.7057-19.573-12.656 2.0856-2.7143 8.9378-3.5369 11.138-1.3371 1.79 1.786 0.13 3.314-3.6 3.314-6.5748 0-6.5446 7.9408 0.0365 9.5925 11.949 2.9991 15.372-14.623 3.898-20.068-17.06-8.096-29.71 18.908-14.27 30.476 5.1188 3.836 5.7658 3.9959 14.924 3.689 7.6335-0.2558 9.0096-0.60641 12.708-3.2379zm-195.14-10.201c6.883-7.415 6.98-7.093-4.133-13.724-5.225-3.118-9.501-5.974-9.502-6.348-0.001-0.373-1.98-1.928-4.397-3.455-2.418-1.527-6.232-4.768-8.475-7.202-12.852-13.943-36.271 0.372-31.231 19.09 1.46 5.42 13.115 10.956 30.105 14.3 3.025 0.596 7.525 1.486 10 1.979 10.291 2.049 11.791 1.654 17.633-4.64zm-14.633-1.36c-2.475-0.493-6.975-1.383-10-1.979-5.516-1.085-21.97-6.339-25.25-8.062-4.342-2.281-0.606-12.966 5.869-16.787 5.628-3.321 7.987-2.736 14.888 3.688 8.2703 7.6984 13.187 11.535 19.621 15.31 2.9547 1.7337 5.4688 3.2386 5.5869 3.3442 0.42217 0.37741-4.8098 5.5936-5.5053 5.4886-0.391-0.059-2.735-0.51-5.21-1.003zm344.2 6.0933c2.92-0.559 7.78-1.498 10.8-2.085 16.882-3.2802 28.644-8.8621 30.105-14.286 5.0404-18.718-18.378-33.034-31.23-19.091-2.2435 2.4339-6.0572 5.675-8.4748 7.2023-2.4177 1.5273-4.3965 3.0823-4.3975 3.4554-0.00099 0.37315-4.2768 3.2294-9.5018 6.3473-11.113 6.6313-11.016 6.3088-4.1332 13.724 5.8754 6.3303 6.9443 6.6309 16.834 4.7331zm-10.586-7.6428c-1.3994-1.5092-2.4477-2.8304-2.3295-2.936 0.11815-0.10562 2.6323-1.6105 5.5869-3.3442 6.4332-3.7748 11.35-7.6116 19.621-15.31 6.9016-6.4243 9.2599-7.0085 14.888-3.6879 6.4751 3.8204 10.211 14.506 5.8693 16.787-5.5972 2.9402-23.619 8.0901-33.75 9.6441-2.2 0.33747-4.7517 0.83356-5.6705 1.1024-0.99084 0.28995-2.7056-0.62754-4.2148-2.2552zm-303.44-13.084c1.8297-1.509 3.9114-3.2991 4.6261-3.9779 0.71465-0.67885 2.0365-1.6468 2.9374-2.151 1.4032-0.78524 0.96589-1.6643-3.0494-6.1302-6.85-7.627-14.222-19.082-16.193-25.175-5.109-15.789-31.487-6.944-31.487 10.558 0 7.429 20.913 24.111 35.945 28.673 3.7564 1.14 3.6288 1.1717 7.2278-1.7965zm-13.885-8.545c-16.912-8.669-24.506-16.765-21.216-22.619 4.6-8.185 14.895-10.816 16.989-4.342 1.9629 6.0688 4.4159 10.367 10.933 19.157 5.8873 7.9402 6.072 8.3659 4.4215 10.19-2.1794 2.4082-1.4822 2.5577-11.127-2.3861zm312.22 6.063c14.2-7.009 26.5-18.336 26.5-24.394 0-17.502-26.38-26.347-31.49-10.558-1.9714 6.0924-9.3431 17.547-16.201 25.175-4.0152 4.4659-4.4525 5.345-3.0494 6.1302 0.90092 0.50418 2.2228 1.4721 2.9374 2.151 8.1368 7.7292 8.6081 7.7622 21.299 1.4957zm-13.913-3.6774c-1.6505-1.8238-1.4658-2.2496 4.4215-10.19 6.5173-8.7899 8.9704-13.088 10.933-19.157 2.0939-6.4739 12.389-3.843 16.989 4.3416 3.2902 5.854-4.304 13.95-21.217 22.619-9.6451 4.9437-8.9479 4.7942-11.127 2.3861zm-255.59-14.448c0-1.1867-1.0999-5.1902-2.4443-8.8966s-2.9736-10.359-3.6206-14.784c-1.64-11.171-2.9-12.504-11.65-12.336-23.958 0.4609-25.617 15.871-4.15 38.516 6.91 7.28 21.86 5.569 21.86-2.499zm-19.77-4.877c-10.719-12.362-12.901-20.486-6.22-23.158 10.033-4.0143 12.45-2.7502 13.916 7.2768 0.63669 4.3544 1.9993 10.307 3.028 13.228l1.8704 5.3112-2.9352 1.785c-3.9094 2.3774-3.641 2.5008-9.6601-4.443zm265.63 7.354c21.47-22.558 19.8-38.033-4.15-38.494-8.75-0.1681-10.01 1.1649-11.65 12.337-0.64698 4.4247-2.2763 11.077-3.6206 14.784-3.657 10.082-3.5306 10.508 4.3057 14.505 8.0404 4.1005 8.2662 4.0537 15.106-3.1311zm-12.017-2.9821-2.6618-1.7099 1.8711-5.3132c1.0291-2.9223 2.3921-8.8759 3.0288-13.23 1.4662-10.027 3.8836-11.291 13.916-7.2768 6.6782 2.6721 4.4963 10.796-6.2194 23.158-5.811 6.7038-6.1041 6.8328-9.935 4.3719zm-160.48 0.106c9.8-8.189 5.13-20.25-7.85-20.25-9.083 0-14.765 16.448-6.7571 19.559 2.0625 0.80137 4.875 2.0873 6.25 2.8575 3.5008 1.9611 3.3703 1.995 8.3555-2.1666zm-8.61-5.412c-3.1085-1.1353-3.168-1.3402-1.6522-5.6885 1.2422-3.5634 1.8568-3.7412 5.8306-1.6862 4.1057 2.1231 3.2713 9.231-0.99293 8.458-0.24-0.043-1.68-0.531-3.19-1.083zm94.25 7.417c1.375-0.64963 4.1875-1.8497 6.25-2.6669 5.0771-2.0116 4.5694-11.71-0.93132-17.788-5.9165-6.5377-22.26 3.7318-19.16 12.039 0.98906 2.65 9.5083 10.543 10.71 9.923 0.35-0.18 1.75-0.858 3.13-1.507zm-5.7-8.505c-2.8-3.08 0.54-7.75 5.55-7.75 0.85 0 3.15 5.144 3.15 7.051 0 0.562-5.24 2.949-6.47 2.949-0.097 0-1.0976-1.0125-2.2235-2.25zm-137.84 3.8016c7.5682-1.9713 7.1568-1.3453 7.9081-12.034 0.36919-5.2522 0.94397-11.539 1.2773-13.971 1.0577-7.7169-11.4-11.417-21.908-6.5069-6.8358 3.1943-5.5298 19.214 2.5444 31.21 2.1382 3.1767 2.7021 3.2488 10.178 1.3016zm-7.0678-9.3271c-6.1824-14.301-3.3844-21.446 7.3435-18.754l2.4703 0.62002-0.7162 10.205c-0.3939 5.6126-0.77849 10.253-0.85462 10.311-2.7843 2.1393-6.7887 0.98221-8.243-2.3819zm210.32 8.025c8.0742-11.996 9.3802-28.016 2.5444-31.21-10.508-4.9101-22.966-1.21-21.908 6.5069 0.33332 2.4318 0.9081 8.7187 1.2773 13.971 0.73806 10.5 0.51391 10.126 7.1712 11.948 7.3041 1.9986 8.8688 1.8243 10.915-1.2157zm-8.96-4.966c-2.24-0.34-2.75-0.932-2.75-3.2 0-1.5305-0.28895-6.201-0.64211-10.379-0.63409-7.5013-0.6108-7.604 1.8657-8.2256 3.8034-0.95458 10.451 1.1674 11.07 3.5336 0.86493 3.3075-4.2467 19.205-6.0567 18.837-0.41-0.082-1.98-0.337-3.49-0.566zm-159.73 1.466c0.69651-1.7875 2.6086-6.0538 4.249-9.4806 3.4138-7.1313 2.9988-8.6723-3.7148-13.793-13.064-9.9644-26.008 0.65837-22.313 18.312 1.3523 6.4616 2.0746 7.0684 8.4134 7.0684 3.0426 0 5.7892 0.25714 6.1035 0.57143 1.9269 1.9269 6.0616 0.4018 7.2618-2.6786zm-12.226-4.4616c-3.2955-0.50242-4.2228-2.9687-3.337-8.8752 1.1547-7.7003 5.6679-9.306 12.494-4.4454l2.7865 1.9842-2.3394 4.774c-1.2867 2.6257-2.3535 5.3365-2.3707 6.024-0.0307 1.226-1.8399 1.3607-7.2335 0.53836zm151.81 6.5879c9.8164 0.52867 8.6958-26.603-1.1752-28.455-7.8986-1.4818-15.891 1.7675-20.082 8.1643-1.521 2.3213-1.4472 2.787 1.3755 8.6834 1.6405 3.4268 3.5703 7.7359 4.2884 9.5757l1.3058 3.3451 5.5893-0.74074c3.0741-0.40741 6.9885-0.66539 8.6987-0.57328zm-10.641-7.0127c-0.0172-0.74995-1.084-3.5118-2.3707-6.1375l-2.3394-4.774 2.6207-1.8448c8.478-5.968 17.906 2.8415 12.355 11.545-1.1639 1.825-10.227 2.8946-10.266 1.2116z"/>
</svg>
