<?xml version="1.0" encoding="UTF-8" standalone="no"?>
<svg id="svg2" xmlns:rdf="http://www.w3.org/1999/02/22-rdf-syntax-ns#" xmlns="http://www.w3.org/2000/svg" height="140.56mm" width="313.61mm" version="1.1" xmlns:cc="http://creativecommons.org/ns#" xmlns:dc="http://purl.org/dc/elements/1.1/" viewBox="0 0 1111.2108 498.05394">
<g id="layer1" transform="translate(1098.1 -138.27)">
<path id="path4183" d="m-700.63 138.27c-2.3595-0.007-4.7691 0.26911-7.1934 0.85742-8.9734 2.1777-12.274 4.7777-17.555 13.83-3.5451 6.0775-5.1411 6.7911-12.203 5.4473-2.8831-0.54863-9.6537-1.7875-15.045-2.752-8.3573-1.4951-10.347-2.2372-13.5-5.0371-2.0338-1.8062-4.4995-3.989-5.4805-4.8516-12.275-10.793-27.448-7.1863-43.656 10.379-10.091 10.936-17.747 15.119-27.672 15.119-4.4571 0-4.5211 0.0475-6.8789 5.25-4.3779 9.6599-5.7897 10.707-15.83 11.736-12.838 1.3165-18.667 3.5308-23.502 8.9238-4.5673 5.0946-10.178 13.03-10.178 14.395 0 0.76411-1.4625 2.9816-3.25 4.9297s-5.0248 5.6808-7.1934 8.2949c-7.7572 9.351-23.389 12.127-34.455 6.1172l-5.2539-2.8555 0.32617 2.752c0.99082 8.3514 16.15 13.871 27.711 10.09 15.21-4.9748 12.88 2.1864-6.9512 21.367-12.66 12.245-13.909 13.011-18.484 11.32-25.095-9.2719-50.061-3.7816-60.012 13.197-7.081 12.083-25.619 9.9626-51.894-5.9336-13.393-8.1026-24.505-27.754-24.529-43.383-0.02-13.014 1.7463-16.083 10.125-17.594 2.0015-0.36086 6.7054-2.6713 10.453-5.1328 3.7478-2.4615 7.2033-4.4746 7.6778-4.4746 2.2749 0 4.6381 2.3132 6.1015 5.9707 3.1354 7.836 8.0073 3.0253 5.6094-5.5391-1.3565-4.8449-5.3903-8.7013-11.939-11.414-3.479-1.441-4.2089-5.3277-1.2911-6.875 22.294-11.823 52.66-1.627 44.25 14.857-3.1753 6.2241-1.7499 15.73 4.0704 27.139 4.015 7.8702 1.215 16.461-6.584 20.201-13.079 6.2727-26.791-0.33878-21.854-10.537 3.697-7.6362-3.6439-13.293-8.209-6.3262-9.1308 13.935 12.82 31.267 30.99 24.469 34.737-12.997 34.05-62.329-1.0762-77.293-5.9539-2.5365-7.915-3.8577-8.1582-5.5-1.0699-7.2245 23.06-0.76943 36.621 9.7969 37.114 28.918 96.939 15.49 91.336-20.5-2.1522-13.824-16.103-23.769-22.984-16.383-5.7025 6.121-2.046 11.403 7.209 10.412 11.824-1.2662 15.108 11.714 5.7188 22.605-14.066 16.317-33.275 17.054-48.078 1.8438-7.728-7.9408-14.864-12.928-18.498-12.928-5.8714 0-8.2943-4.0516-5.0137-8.3848 6.6805-8.8237-3.8628-29.286-12.336-23.941-2.8019 1.7674-2.3292 3.1963 1.7461 5.2754 6.3392 3.234 7.7583 7.82 4.2148 13.631-3.3296 5.4602-7.2665 6.5292-23.359 6.3457-12.703-0.14488-15.182 0.11638-22.756 2.4004-4.675 1.4098-10.3 2.8665-12.5 3.2363-10.504 1.7658-17.953 5.3194-25.166 12.004-5.1852 4.8055-6.9777 2.0806-3.334-5.0664 4.1862-8.2108 1.8532-22.942-4.2636-26.928-6.9644-4.5379-13.988-4.3401-16.422 0.4629-2.3517 4.6398 0.8165 7.3205 4.6855 3.9648 10.602-9.1947 14.402 5.8335 4.4766 17.701-3.5874 4.2893-7.446 9.8238-8.5762 12.299-1.1301 2.475-2.696 5.6944-3.4785 7.1543-2.0946 3.9079-1.752 9.5795 0.8281 13.729 2.028 3.261 2.2521 4.9 2.2754 16.617 0.014 7.15 0.6125 15.7 1.3301 19s1.7537 8.025 2.3008 10.5c2.5157 11.381 17.924 29.563 29.803 35.166 2.4975 1.1781 5.2296 2.7282 6.0723 3.4453 2.022 1.7206 20.52 8.1327 25.98 9.0059 6.399 1.0232 8.2778 3.3783 7.3242 9.1855-1.8544 11.292 0.3148 23.701 6.3672 36.424 5.4664 11.491 2.789 11.617-8.875 0.41406-28.795-27.656-69.832-34.921-77.057-13.641-2.2091 6.5064 2.2665 7.0565 8.1348 1 9.3378-9.6373 19.492-7.2349 26.965 6.3809 7.5948 13.838 19.772 17.628 25.037 7.791 2.0356-3.8035 3.9973-3.3567 9.3965 2.1406 7.8416 7.984 28.048 19.673 42.695 24.699 13.773 4.7259 47.787 3.5767 58.342-1.9707 14.682-7.716 35.644-2.1416 40.461 7.2012-0.23144 1.2837-0.0668 2.9423 0.57812 4.8965 0.0993 0.30079 0.16507 0.5986 0.23047 0.89649-0.0653 0.29727-0.1314 0.59435-0.23047 0.89453-0.64492 1.9541-0.80956 3.6128-0.57812 4.8965-4.8166 9.3429-25.779 14.917-40.461 7.2012-10.555-5.5474-44.569-6.6966-58.342-1.9707-14.647 5.0259-34.854 16.717-42.695 24.701-5.3992 5.4973-7.3609 5.9442-9.3965 2.1406-5.2647-9.8373-17.442-6.0491-25.037 7.7891-7.4727 13.616-17.627 16.018-26.965 6.3809-5.8683-6.0565-10.344-5.5064-8.1348 1 7.2252 21.28 48.262 14.015 77.057-13.641 11.664-11.203 14.341-11.077 8.875 0.41407-6.0524 12.723-8.2216 25.131-6.3672 36.424 0.9536 5.8072-0.9252 8.1623-7.3243 9.1856-5.4605 0.87317-23.958 7.2852-25.98 9.0059-0.8427 0.7171-3.5748 2.2672-6.0723 3.4453-11.878 5.6033-27.287 23.785-29.803 35.166-0.5471 2.475-1.5832 7.2-2.3008 10.5s-1.3159 11.85-1.3301 19c-0.023 11.717-0.2474 13.358-2.2754 16.619-2.5801 4.149-2.9227 9.8186-0.8281 13.727 0.7825 1.4599 2.3484 4.6793 3.4785 7.1543 1.1302 2.475 4.9888 8.0095 8.5762 12.299 9.9255 11.868 6.1251 26.896-4.4766 17.701-3.869-3.3556-7.0372-0.67496-4.6855 3.9648 2.4344 4.803 9.4575 5.0027 16.422 0.46485 6.1168-3.9857 8.4498-18.719 4.2636-26.93-3.6437-7.147-1.8512-9.87 3.334-5.0645 7.2127 6.6845 14.662 10.236 25.166 12.002 2.2 0.36985 7.825 1.8266 12.5 3.2363 7.5742 2.284 10.053 2.5453 22.756 2.4004 16.093-0.18355 20.03 0.88546 23.359 6.3457 3.5434 5.8108 2.1243 10.397-4.2148 13.631-4.0753 2.0791-4.548 3.508-1.7461 5.2754 8.4731 5.3447 19.016-15.118 12.336-23.941-3.2807-4.3331-0.85771-8.3848 5.0137-8.3848 3.6344 0 10.77-4.985 18.498-12.926 14.803-15.211 34.012-14.475 48.078 1.8418 9.3891 10.892 6.1051 23.874-5.7188 22.607-9.255-0.99112-12.912 4.2892-7.209 10.41 6.881 7.386 20.832-2.5587 22.984-16.383 5.6032-35.99-54.222-49.418-91.336-20.5-13.561 10.566-37.691 17.021-36.621 9.7969 0.2432-1.6423 2.2043-2.9635 8.1582-5.5 35.126-14.964 35.813-64.296 1.0762-77.293-18.17-6.7983-40.121 10.533-30.99 24.469 4.5651 6.9673 11.906 1.31 8.209-6.3262-4.9375-10.198 8.7741-16.81 21.854-10.537 7.799 3.7404 10.599 12.331 6.584 20.201-5.8203 11.409-7.2457 20.915-4.0704 27.139 8.4098 16.484-21.956 26.68-44.25 14.857-2.9178-1.5473-2.1879-5.432 1.2911-6.873 6.5491-2.7128 10.583-6.5711 11.939-11.416 2.3979-8.5643-2.474-13.375-5.6094-5.5391-1.4634 3.6575-3.8266 5.9707-6.1015 5.9707-0.4745 0-3.93-2.0131-7.6778-4.4746-3.7477-2.4615-8.4516-4.772-10.453-5.1328-8.3787-1.5107-10.145-4.578-10.125-17.592 0.024-15.629 11.136-35.282 24.529-43.385 26.275-15.896 44.814-18.016 51.894-5.9336 9.9503 16.979 34.916 22.469 60.012 13.197 4.575-1.6903 5.8245-0.92461 18.484 11.32 19.831 19.181 22.161 26.342 6.9512 21.367-11.561-3.7815-26.72 1.7385-27.711 10.09l-0.32617 2.752 5.2539-2.8535c11.066-6.0098 26.698-3.2357 34.455 6.1152 2.1686 2.6142 5.4058 6.3468 7.1934 8.2949 1.7875 1.9481 3.25 4.1675 3.25 4.9316 0 1.365 5.6105 9.2999 10.178 14.395 4.8348 5.393 10.664 7.6054 23.502 8.9219 10.04 1.0296 11.452 2.0764 15.83 11.736 2.3578 5.2025 2.4218 5.25 6.8789 5.25 9.9247 0 17.581 4.185 27.672 15.121 16.208 17.565 31.381 21.172 43.656 10.379 0.98093-0.86255 3.4467-3.0473 5.4805-4.8535 3.1526-2.7999 5.1427-3.542 13.5-5.0371 5.3912-0.9645 12.162-2.2033 15.045-2.752 7.062-1.3438 8.658-0.63022 12.203 5.4473 5.2805 9.0524 8.5812 11.652 17.555 13.83 19.394 4.7065 37.839-10.555 37.379-30.928-0.22911-10.136 5.9612-16.277 31.791-31.535 3.9868-2.355 5.5122 6.0918 2.2539 12.479-4.2415 8.3141 2.5971 13.772 8.4863 6.7734 3.2468-3.8586 3.4291-9.6025 0.54883-17.301-2.2196-5.9325-1.8891-9.8514 1.0039-11.896 6.684-4.7248 26.971-29.44 35.037-42.688 1.925-3.1613 4.6977-7.2752 6.1621-9.1426s5.2452-8.3465 8.4004-14.396c3.1552-6.05 6.5427-12.041 7.5293-13.312 0.98657-1.2719 2.3095-3.9719 2.9394-6 0.62993-2.0281 2.19-5.9375 3.4668-8.6875 7.4845-16.121 9.8073-22.106 12.414-32 4.3068-16.346 4.6275-17.359 7.8906-36.932 3.2631 19.572 3.5857 20.585 7.8926 36.932 2.6067 9.894 4.9276 15.879 12.412 32 1.2767 2.75 2.8369 6.6594 3.4668 8.6875 0.63 2.0281 1.9529 4.7281 2.9395 6s4.376 7.2625 7.5312 13.312c3.1552 6.05 6.934 12.529 8.3984 14.396 1.4644 1.8674 4.2371 5.9812 6.1621 9.1426 8.0664 13.247 28.353 37.963 35.037 42.688 2.893 2.045 3.2236 5.964 1.0039 11.896-2.8802 7.6983-2.698 13.442 0.54883 17.301 5.8892 6.9989 12.728 1.5406 8.4863-6.7734-3.2583-6.3868-1.731-14.834 2.2558-12.479 25.83 15.258 32.018 21.399 31.789 31.535-0.4605 20.373 17.985 35.634 37.379 30.928 8.9734-2.1777 12.274-4.7777 17.555-13.83 3.5451-6.0775 5.1411-6.7911 12.203-5.4473 2.8831 0.54863 9.6537 1.7874 15.045 2.752 8.3573 1.4951 10.347 2.2372 13.5 5.0371 2.0338 1.8062 4.4995 3.991 5.4805 4.8535 12.275 10.793 27.448 7.1863 43.656-10.379 10.091-10.936 17.749-15.121 27.674-15.121 4.4571 0 4.5191-0.0475 6.877-5.25 4.3779-9.6599 5.7897-10.707 15.83-11.736 12.838-1.3165 18.667-3.5288 23.502-8.9219 4.5673-5.0946 10.178-13.03 10.178-14.395 0-0.76411 1.4625-2.9836 3.25-4.9316 1.7875-1.9481 5.0248-5.6808 7.1934-8.2949 7.7572-9.351 23.389-12.125 34.455-6.1152l5.2559 2.8535-0.3281-2.752c-0.9908-8.3514-16.15-13.871-27.711-10.09-15.21 4.9748-12.88-2.1864 6.9512-21.367 12.66-12.245 13.909-13.011 18.484-11.32 25.095 9.2719 50.063 3.7816 60.014-13.197 7.081-12.083 25.617-9.9626 51.892 5.9336 13.393 8.1026 24.505 27.756 24.529 43.385 0.02 13.014-1.7462 16.081-10.125 17.592-2.0014 0.36086-6.7053 2.6713-10.453 5.1328s-7.2013 4.4746-7.6758 4.4746c-2.2749 0-4.6401-2.3132-6.1035-5.9707-3.1353-7.836-8.0073-3.0253-5.6094 5.5391 1.3565 4.8449 5.3904 8.7033 11.94 11.416 3.479 1.441 4.2088 5.3257 1.291 6.873-22.294 11.823-52.66 1.627-44.25-14.857 3.1752-6.2241 1.7499-15.73-4.0703-27.139-4.0151-7.8702-1.2151-16.461 6.584-20.201 13.079-6.2727 26.791 0.33878 21.854 10.537-3.697 7.6362 3.6458 13.293 8.2109 6.3262 9.1307-13.935-12.822-31.267-30.992-24.469-34.737 12.997-34.048 62.329 1.0782 77.293 5.9539 2.5365 7.913 3.8577 8.1562 5.5 1.0699 7.2245-23.058 0.76944-36.619-9.7969-37.114-28.918-96.941-15.49-91.338 20.5 2.1522 13.824 16.103 23.769 22.984 16.383 5.7025-6.121 2.046-11.401-7.209-10.41-11.824 1.2662-15.108-11.716-5.7188-22.607 14.066-16.317 33.277-17.052 48.08-1.8418 7.728 7.9408 14.862 12.926 18.496 12.926 5.8714 0 8.2943 4.0516 5.0137 8.3848-6.6805 8.8237 3.8628 29.286 12.336 23.941 2.8019-1.7674 2.3292-3.1963-1.7461-5.2754-6.3392-3.234-7.7563-7.82-4.2129-13.631 3.3297-5.4602 7.2646-6.5292 23.357-6.3457 12.703 0.14488 15.182-0.11638 22.756-2.4004 4.675-1.4098 10.3-2.8665 12.5-3.2363 10.504-1.7658 17.953-5.3175 25.166-12.002 5.1853-4.8055 6.9777-2.0826 3.334 5.0645-4.1862 8.2108-1.8532 22.944 4.2637 26.93 6.9644 4.5379 13.988 4.3382 16.422-0.46485 2.3516-4.6398-0.8166-7.3205-4.6856-3.9648-10.602 9.1947-14.402-5.8335-4.4766-17.701 3.5874-4.2893 7.4461-9.8238 8.5762-12.299 1.1301-2.475 2.696-5.6944 3.4785-7.1543 2.0946-3.9079 1.752-9.5776-0.8281-13.727-2.028-3.261-2.2521-4.902-2.2754-16.619-0.014-7.15-0.6126-15.7-1.3301-19-0.7176-3.3-1.7536-8.025-2.3007-10.5-2.5157-11.381-17.924-29.563-29.803-35.166-2.4975-1.1781-5.2295-2.7282-6.0722-3.4453-2.0221-1.7206-20.52-8.1327-25.98-9.0059-6.3991-1.0232-8.2759-3.3783-7.3223-9.1856 1.8544-11.292-0.3148-23.701-6.3672-36.424-5.4664-11.491-2.791-11.617 8.8731-0.41407 28.795 27.656 69.831 34.921 77.057 13.641 2.2091-6.5064-2.2664-7.0565-8.1347-1-9.3378 9.6373-19.49 7.2349-26.963-6.3809-7.5948-13.838-19.774-17.626-25.039-7.7891-2.0356 3.8035-3.9953 3.3567-9.3945-2.1406-7.8416-7.984-28.05-19.675-42.697-24.701-13.773-4.7259-47.784-3.5767-58.34 1.9707-14.683 7.7165-35.646 2.1408-40.461-7.2031 0.2308-1.2834 0.0644-2.9416-0.58008-4.8945-0.0991-0.30018-0.16513-0.59726-0.23046-0.89453 0.0654-0.29789 0.13119-0.5957 0.23046-0.89649 0.64453-1.9529 0.81088-3.6111 0.58008-4.8945 4.8153-9.3437 25.779-14.92 40.461-7.2031 10.555 5.5474 44.567 6.6966 58.34 1.9707 14.647-5.0259 34.856-16.715 42.697-24.699 5.3992-5.4973 7.3589-5.9442 9.3945-2.1406 5.2647 9.8373 17.444 6.0471 25.039-7.791 7.4728-13.616 17.625-16.018 26.963-6.3809 5.8683 6.0565 10.344 5.5064 8.1347-1-7.2252-21.28-48.262-14.015-77.057 13.641-11.664 11.203-14.34 11.077-8.8731-0.41406 6.0524-12.723 8.2216-25.131 6.3672-36.424-0.9536-5.8072 0.9232-8.1623 7.3223-9.1855 5.4605-0.87317 23.958-7.2852 25.98-9.0059 0.8427-0.7171 3.5747-2.2672 6.0722-3.4453 11.878-5.6033 27.287-23.785 29.803-35.166 0.5471-2.475 1.5831-7.2 2.3007-10.5 0.7175-3.3 1.3161-11.85 1.3301-19 0.023-11.717 0.2474-13.356 2.2754-16.617 2.5801-4.149 2.9227-9.8206 0.8281-13.729-0.7825-1.4599-2.3484-4.6793-3.4785-7.1543s-4.9888-8.0095-8.5762-12.299c-9.9255-11.868-6.1251-26.896 4.4766-17.701 3.869 3.3556 7.0372 0.67496 4.6856-3.9648-2.4344-4.803-9.4575-5.0008-16.422-0.4629-6.1169 3.9857-8.4499 18.717-4.2637 26.928 3.6437 7.147 1.8513 9.8719-3.334 5.0664-7.2126-6.6845-14.662-10.238-25.166-12.004-2.1999-0.36985-7.825-1.8266-12.5-3.2363-7.5743-2.284-10.053-2.5453-22.756-2.4004-16.093 0.18355-20.028-0.88546-23.357-6.3457-3.5434-5.8108-2.1263-10.397 4.2129-13.631 4.0753-2.0791 4.548-3.508 1.7461-5.2754-8.4731-5.3447-19.016 15.118-12.336 23.941 3.2806 4.3331 0.8577 8.3848-5.0137 8.3848-3.6345 0-10.768 4.9869-18.496 12.928-14.803 15.211-34.014 14.473-48.08-1.8438-9.3891-10.892-6.1051-23.872 5.7188-22.605 9.255 0.99112 12.911-4.2912 7.209-10.412-6.881-7.386-20.832 2.5587-22.984 16.383-5.6032 35.99 54.224 49.418 91.338 20.5 13.561-10.566 37.689-17.021 36.619-9.7969-0.2432 1.6423-2.2023 2.9635-8.1562 5.5-35.126 14.964-35.815 64.296-1.0782 77.293 18.17 6.7983 40.123-10.533 30.992-24.469-4.5651-6.9673-11.908-1.31-8.2109 6.3262 4.9375 10.198-8.7742 16.81-21.854 10.537-7.7991-3.7404-10.599-12.331-6.584-20.201 5.8202-11.409 7.2455-20.915 4.0703-27.139-8.4098-16.484 21.956-26.68 44.25-14.857 2.9178 1.5473 2.188 5.434-1.291 6.875-6.5491 2.7128-10.583 6.5692-11.94 11.414-2.3979 8.5643 2.4741 13.375 5.6094 5.5391 1.4634-3.6575 3.8286-5.9707 6.1035-5.9707 0.4745 0 3.9281 2.0131 7.6758 4.4746 3.7478 2.4615 8.4517 4.772 10.453 5.1328 8.3788 1.5107 10.145 4.58 10.125 17.594-0.024 15.629-11.136 35.28-24.529 43.383-26.275 15.896-44.812 18.016-51.892 5.9336-9.9503-16.979-34.918-22.469-60.014-13.197-4.575 1.6903-5.8246 0.92461-18.484-11.32-19.831-19.181-22.161-26.342-6.9512-21.367 11.561 3.7815 26.72-1.7385 27.711-10.09l0.3281-2.752-5.2559 2.8555c-11.066 6.0098-26.698 3.2338-34.455-6.1172-2.1686-2.6142-5.4059-6.3468-7.1934-8.2949s-3.25-4.1656-3.25-4.9297c0-1.365-5.6105-9.2999-10.178-14.395-4.8348-5.393-10.664-7.6074-23.502-8.9238-10.04-1.0296-11.452-2.0764-15.83-11.736-2.3578-5.2025-2.4198-5.25-6.877-5.25-9.9247 0-17.583-4.1831-27.674-15.119-16.208-17.565-31.381-21.172-43.656-10.379-0.98093 0.86255-3.4467 3.0453-5.4805 4.8516-3.1526 2.7999-5.1427 3.542-13.5 5.0371-5.3912 0.9645-12.162 2.2033-15.045 2.752-7.062 1.3438-8.658 0.63022-12.203-5.4473-5.2805-9.0524-8.5813-11.652-17.555-13.83-19.394-4.7065-37.839 10.557-37.379 30.93 0.2292 10.136-5.9593 16.275-31.789 31.533-3.9868 2.355-5.5142-6.0898-2.2558-12.477 4.2415-8.3141-2.5971-13.774-8.4863-6.7754-3.2468 3.8586-3.429 9.6045-0.54883 17.303 2.2197 5.9325 1.8891 9.8495-1.0039 11.895-6.684 4.7248-26.971 29.44-35.037 42.688-1.925 3.1613-4.6977 7.2771-6.1621 9.1445s-5.2432 8.3445-8.3984 14.395c-3.1552 6.05-6.5446 12.041-7.5312 13.312-0.9866 1.2719-2.3095 3.9719-2.9395 6-0.6299 2.0281-2.1901 5.9375-3.4668 8.6875-7.4845 16.121-9.8054 22.106-12.412 32-4.3068 16.346-4.6294 17.359-7.8926 36.932-3.2631-19.572-3.5838-20.585-7.8906-36.932-2.6068-9.894-4.9296-15.879-12.414-32-1.2768-2.75-2.8369-6.6594-3.4668-8.6875-0.62995-2.0281-1.9529-4.7281-2.9394-6-0.98656-1.2719-4.3741-7.2625-7.5293-13.312-3.1552-6.05-6.936-12.527-8.4004-14.395-1.4644-1.8674-4.2371-5.9832-6.1621-9.1445-8.0664-13.247-28.353-37.963-35.037-42.688-2.893-2.045-3.2235-5.962-1.0039-11.895 2.8803-7.6983 2.6979-13.444-0.54883-17.303-5.8892-6.9989-12.728-1.5387-8.4863 6.7754 3.2583 6.3868 1.7329 14.832-2.2539 12.477-25.83-15.258-32.02-21.398-31.791-31.533 0.40296-17.826-13.669-31.74-30.186-31.787zm-84.576 7.916c2.3497 0.0183 4.5561 0.4264 6.3594 1.248 2.7659 1.2602 4.4022 5.3478 2.7871 6.9629-0.54408 0.54409-5.3068 1.3992-10.584 1.8984-5.2772 0.49927-10.626 1.1504-11.887 1.4473-6.6601 1.5679-5.542-4.436 1.5879-8.5254 3.5065-2.0112 7.8202-3.0617 11.736-3.0312zm485.37 0c3.9162-0.0305 8.2298 1.0201 11.736 3.0312 7.1299 4.0894 8.248 10.093 1.5879 8.5254-1.261-0.29684-6.6096-0.948-11.887-1.4473-5.2772-0.49926-10.04-1.3544-10.584-1.8984-1.615-1.615 0.0213-5.7027 2.7871-6.9629 1.8033-0.82164 4.0097-1.2298 6.3594-1.248zm-398.12 0.0801c2.0328-0.0396 4.3372 0.58954 7.1367 1.8613 8.1442 3.6998 10.61 8.0081 10.279 17.963-0.32783 9.8783-1.381 10.561-8.8262 5.7227-1.946-1.2645-5.096-2.6141-7-3-13.294-2.6946-16.734-10.347-8.5527-19.021 2.186-2.3179 4.3493-3.4745 6.9629-3.5254zm310.86 0c2.6136 0.0509 4.7769 1.2075 6.9629 3.5254 8.1812 8.6746 4.7412 16.327-8.5527 19.021-1.904 0.38592-5.054 1.7355-7 3-7.4452 4.8379-8.4984 4.1556-8.8262-5.7227-0.3304-9.9548 2.1351-14.263 10.279-17.963 2.7995-1.2718 5.1039-1.9009 7.1367-1.8613zm-365.79 16.73c3.2324 0.026 7.2462 0.50091 12.266 1.375 10.24 1.7832 11.203 4.3436 4.127 10.986-5.8094 5.4535-4.9502 8.1748 2.9004 9.1719 5.0294 0.63876 9.572 4.0021 17.268 12.787 3.025 3.4532 7.3853 8.3582 9.6895 10.9 6.598 7.2795 4.4573 8.4182-12.186 6.4824-12.029-1.3991-20.225-1.1151-28.77 0.99414-23.17 5.7196-63.244-17.622-63.031-36.713 0.11099-9.9736 19.634-17.364 25.471-9.6426 4.8782 6.4532 6.6993 7.9238 9.8203 7.9238 3.9104 0 8.5197-3.3715 10.107-7.3926 1.9016-4.8161 5.2266-6.9303 12.338-6.873zm420.73 0c7.1113-0.0573 10.436 2.057 12.338 6.873 1.5877 4.021 6.197 7.3926 10.107 7.3926 3.1211 0 4.9421-1.4706 9.8203-7.9238 5.8372-7.7218 25.36-0.33102 25.471 9.6426 0.21246 19.091-39.862 42.433-63.031 36.713-8.5444-2.1093-16.741-2.3932-28.77-0.99414-16.643 1.9357-18.784 0.79704-12.186-6.4824 2.3041-2.5422 6.6644-7.4471 9.6894-10.9 7.6955-8.785 12.238-12.148 17.268-12.787 7.8506-0.99706 8.7118-3.7184 2.9023-9.1719-7.0762-6.6427-6.1148-9.2031 4.125-10.986 5.0194-0.87409 9.0332-1.349 12.266-1.375zm-373.4 11.404c1.4655-0.0599 3.6769 0.59893 7.2363 1.9512 16.565 6.293 18.136 7.6641 20.814 18.15 4.4971 17.608 24.785 29.641 36.686 21.76 1.65-1.0928 3.2977-1.9905 3.6621-1.9941 1.664-0.0165 13.214 10.689 16.025 14.854 1.7231 2.5525 5.6481 7.3902 8.7227 10.75 5.9399 6.491 16.09 19.727 16.09 20.982 0 0.41277 0.74405 1.5743 1.6543 2.5801 5.6812 6.2777-3.4062 1.179-15.012-8.4219-3.8228-3.1625-7.332-5.75-7.7988-5.75-0.46682 0-5.4598-3.0413-11.096-6.7578-5.6359-3.7165-12.628-7.9776-15.537-9.4707-2.9086-1.4932-7.6336-4.2258-10.5-6.0703-8.7744-5.6465-10.076-6.3534-14.121-7.6797-21.41-7.0196-43.903-31.178-39.59-42.521 0.57849-1.5215 1.2982-2.3014 2.7637-2.3613zm326.08 0c1.4655 0.06 2.1852 0.83981 2.7637 2.3613 4.3127 11.343-18.18 35.502-39.59 42.521-4.0453 1.3263-5.3467 2.0332-14.121 7.6797-2.8663 1.8446-7.5913 4.5772-10.5 6.0703-2.9086 1.4932-9.8993 5.7542-15.535 9.4707-5.6359 3.7165-10.629 6.7578-11.096 6.7578-0.4668 0-3.978 2.5875-7.8008 5.75-11.606 9.6009-20.693 14.7-15.012 8.4219 0.9102-1.0058 1.6543-2.1673 1.6543-2.5801 0-1.2553 10.15-14.491 16.09-20.982 3.0746-3.3598 6.9996-8.1975 8.7226-10.75 2.8114-4.1647 14.361-14.87 16.025-14.854 0.3644 0.004 2.0121 0.90139 3.6621 1.9941 11.901 7.8816 32.19-4.1518 36.688-21.76 2.6782-10.486 4.2479-11.857 20.812-18.15 3.5594-1.3522 5.7708-2.0111 7.2363-1.9512zm-442.46 3.916c1.1364 0.008 2.0223 0.65722 2.6641 1.9453 0.41105 0.825 2.4296 5.1 4.4863 9.5 5.5589 11.892 22.557 26.436 35.729 30.57 14.265 4.4776 16.13 8.1284 5.9043 11.553-8.0129 2.6832-34.43 15.954-37.414 18.795-1.2359 1.1768-4.048 3.3145-6.248 4.75s-7.15 5.3991-11 8.8086c-17.787 15.752-31.054 20.294-38.689 13.246-2.9564-2.7289-5.8106-2.436-5.8106 0.5957 0 2.9504 5.6985 10.069 9.5176 11.891 6.8442 3.2638 5.9828 6.6621-4.123 16.262-11.101 10.544-13.408 9.2237-17.426-9.9707-5.9943-28.639-1.7775-62.014 5.9863-47.379 7.9551 14.996 26.469 17.627 39.295 5.5859 6.0948-5.7221 3.0638-7.7039-4.9043-3.207-18.969 10.706-31.308-9.3213-15.375-24.955 7.8013-7.655 10.677-13.868 11.254-24.316 0.44218-8.0108 2.1952-10.361 8.8457-11.855 3.3838-0.7603 5.5329-2.23 9.5195-6.5137 3.3065-3.5528 5.895-5.3187 7.7891-5.3047zm558.85 0c1.8941-0.0141 4.4806 1.7518 7.7871 5.3047 3.9866 4.2837 6.1357 5.7534 9.5195 6.5137 6.6505 1.4943 8.4055 3.8447 8.8477 11.855 0.57671 10.448 3.4526 16.661 11.254 24.316 15.933 15.634 3.5923 35.661-15.377 24.955-7.968-4.4969-10.999-2.5151-4.9043 3.207 12.825 12.041 31.34 9.4096 39.295-5.5859 7.7638-14.635 11.981 18.74 5.9863 47.379-4.0175 19.194-6.3252 20.515-17.426 9.9707-10.106-9.5996-10.967-12.998-4.123-16.262 3.819-1.8212 9.5176-8.9402 9.5176-11.891 0-3.0318-2.8522-3.3246-5.8086-0.5957-7.6357 7.0482-20.904 2.5062-38.691-13.246-3.85-3.4095-8.8-7.3731-11-8.8086s-5.0102-3.5732-6.2461-4.75c-2.9838-2.8411-29.403-16.112-37.416-18.795-10.226-3.4243-8.3607-7.0751 5.9043-11.553 13.172-4.1345 30.17-18.678 35.729-30.57 2.0567-4.4 4.0753-8.675 4.4863-9.5 0.64178-1.2881 1.5296-1.9369 2.666-1.9453zm-406.12 15.617c2.2118-0.11355 6.7839 1.7356 13.477 6.0781 5.7217 3.7125 10.406 7.3034 10.41 7.9805 0.0155 2.6387-11.057 2.9484-14.172 0.39648-10.53-8.6267-13.401-14.266-9.7148-14.455zm253.39 0c3.6862 0.18926 0.81755 5.8284-9.7129 14.455-3.1151 2.5519-14.189 2.2422-14.174-0.39648 0.004-0.67702 4.6884-4.268 10.41-7.9805 6.6927-4.3425 11.265-6.1917 13.477-6.0781zm-287.33 33.523c8.1423 0.14296 11.124 6.1229 2.2227 8.6387-2.2583 0.63831-5.6883 2.2333-7.6211 3.5449s-5.5538 3.58-8.0469 5.041c-2.4931 1.4611-6.7131 4.791-9.3789 7.4004-9.9906 9.7793-14.181 11.01-19.348 5.6797-5.6034-5.7813-5.8982-4.995-2.7656 7.377 1.6081 6.351 4.0378 8.6372 10.156 9.5547 6.3198 0.9477 10.457 4.1654 12.975 10.094 10.431 24.561 32.461 36.446 53.682 28.959 23.208-8.1884 18.194-49.175-5.2793-43.156-4.8702 1.2488-7.1728 8.2196-4.1445 12.543 1.6992 2.426 1.8333 2.4321 12.539 0.56836 5.1763-0.90113 7.7019 2.73 5.9551 8.5606-7.3522 24.539-46.079 13.996-46.107-12.553-0.0464-43.24 52.662-51.193 98.225-14.818 5.4223 4.3288 11.024 8.8002 12.447 9.9356 4.0258 3.2114 1.7264 6.9908-3.5176 5.7812-5.5381-1.2775-23.419-0.89693-26.971 0.57422-7.5193 3.1146-13.791 19.483-9.2168 24.057 2.7805 2.7805 5.0234 1.5842 5.0234-2.6816 0-21.77 27.334-20.148 33.373 1.9805 3.5925 13.163 8.489 16.668 23.34 16.703l9.2129 0.0215 3.8555 5.75c9.9147 14.787 11.785 31.25 3.5508 31.25-5.1934 0-8.7371 3.9588-7.8809 8.8047 1.22 6.904 6.416 11.204 10.848 8.9766 5.343-2.6862 7.1329-0.86786 8.2012 8.3301 0.12226 1.0527 0.25236 2.0242 0.39063 2.9238-0.13817 0.89913-0.26845 1.8718-0.39063 2.9238-1.0682 9.1979-2.8581 11.014-8.2012 8.3281-4.4316-2.2279-9.6277 2.0725-10.848 8.9766-0.85628 4.8459 2.6874 8.8047 7.8809 8.8047 8.2344 0 6.3639 16.463-3.5508 31.25l-3.8555 5.75-9.2129 0.0234c-14.851 0.0354-19.747 3.5382-23.34 16.701-6.0394 22.129-33.373 23.752-33.373 1.9824 0-4.2659-2.2429-5.4641-5.0234-2.6836-4.5739 4.5739 1.6975 20.942 9.2168 24.057 3.5517 1.4712 21.433 1.8536 26.971 0.57617 5.244-1.2096 7.5434 2.5679 3.5176 5.7793-1.4232 1.1353-7.025 5.6067-12.447 9.9356-45.562 36.374-98.271 28.422-98.225-14.818 0.0285-26.549 38.755-37.092 46.107-12.553 1.7469 5.8305-0.77875 9.4617-5.9551 8.5605-10.706-1.8637-10.84-1.8576-12.539 0.56836-3.0282 4.3234-0.72568 11.294 4.1445 12.543 23.474 6.0192 28.488-34.966 5.2793-43.154-21.221-7.4872-43.251 4.3959-53.682 28.957-2.5178 5.9284-6.6548 9.146-12.975 10.094-6.1185 0.91753-8.5482 3.2037-10.156 9.5547-3.1326 12.372-2.8378 13.158 2.7656 7.377 5.1662-5.3302 9.3571-4.0996 19.348 5.6797 2.6658 2.6094 6.8858 5.9393 9.3789 7.4004 2.4931 1.461 6.1141 3.7294 8.0469 5.041s5.3628 2.9086 7.6211 3.5469c10.172 2.8752 4.8242 10.274-6.0098 8.3144-1.587-0.28704-10.535-0.93317-19.885-1.4356-52.468-2.8192-99.139-39.611-100.19-78.986-0.38345-14.324-2.7759-16.509-8.2988-7.5723-5.8726 9.5021-9.0368 8.8714-18.756-3.7383-13.999-18.163-14-16.092 0.0137-28.447 17.083-15.062 26.648-18.57 31.156-11.428 6.8864 10.909 21.967 2.9836 17.119-8.9961-3.1502-7.784 32.669-6.0855 45.516 2.1582 4.5128 2.8958 12.943 11.892 12.943 13.812 0 0.36873 1.0996 1.8575 2.4434 3.3066 15.078 16.261 8.5509 43.913-13.041 55.252-17.842 9.3699-46.023-8.495-39.051-24.756 0.74317-1.7331 1.7557-4.4558 2.25-6.0488 1.8634-6.0048 6.3424-5.9864 9.4297 0.0371 6.7979 13.263 19.345 13.503 22.883 0.4375 3.4558-12.761-11.372-23.279-25.305-17.947-24.709 9.4555-25.647 39.237-1.6816 53.389 9.2054 5.4358 9.5174 6.0995 6.3281 13.48-2.8283 6.5456-2.4341 10.028 1.6777 14.834 4.6299 5.4116 8.29 3.8612 9.5508-4.0449 0.69915-4.3842 8.6641-13.683 13.814-16.127 31.896-15.136 35.824-56.103 8.2559-86.119-7.5643-8.2359-5.4744-8.3958 18.445-1.4102 5.3746 1.5696 18.131 7.0744 21.641 9.3398 4.6856 3.0241 17.4 12.896 21.504 16.695 37.732 34.934 93.288 30.079 103.83-9.0723 4.3496-16.153-20.078-32.856-27.836-19.033-5.5728 9.9286 7.5675 20.234 13.309 10.438 3.8141-6.5082 7.4558-5.1194 7.5215 2.8672 0.0336 4.0902-2.9086 13.633-4.2031 13.633-0.42089 0-0.76563 0.65528-0.76563 1.4551 0 1.7851-7.564 7.6724-13.631 10.609-9.6478 4.6704-26.316 1.4737-41.758-8.0078-17.92-11.003-19.217-13.37-9.75-17.797 6.0483-2.8283 7.6387-5.7764 7.6387-14.158 0-7.4999-3.6867-10.741-5.0234-4.416-1.385 6.5534-4.7541 7.1992-19.482 3.7383-8.9692-2.1076-11.78-1.5752-16.307 3.0859-4.054 4.1742-5.3054 4.2652-12.588 0.91407-10.378-4.7756-11.576-5.3012-21.1-9.2617-18.953-7.8814-29.436-8.8708-62.5-5.8945-31.317 2.819-56.302 12.914-71 28.684-9.7744 10.488-13.127 11.221-20.625 4.5195-1.994-1.7823-5.7065-4.4586-8.25-5.9492-6.4579-3.7845-6.4652-7.0475-0.0234-10.465 5.4359-2.8838 9.8406-8.6932 12.137-14.412 1.3921-1.5497 1.8968-3.9252 1.6738-6.6777 0.22301-2.7526-0.28161-5.13-1.6738-6.6797-2.2961-5.719-6.7008-11.526-12.137-14.41-6.4418-3.4174-6.4344-6.6803 0.0234-10.465 2.5435-1.4906 6.256-4.1689 8.25-5.9512 7.4977-6.7017 10.851-5.966 20.625 4.5215 14.698 15.77 39.683 25.863 71 28.682 33.064 2.9763 43.547 1.9868 62.5-5.8945 9.5239-3.9605 10.722-4.4862 21.1-9.2617 7.2825-3.3511 8.5339-3.2602 12.588 0.91406 4.5268 4.6611 7.3375 5.1936 16.307 3.0859 14.728-3.4609 18.097-2.8151 19.482 3.7383 1.3368 6.3252 5.0234 3.0859 5.0234-4.4141 0-8.3818-1.5904-11.332-7.6387-14.16-9.4668-4.4269-8.1705-6.7938 9.75-17.797 15.442-9.4815 32.11-12.676 41.758-8.0059 6.0669 2.937 13.631 8.8223 13.631 10.607 0 0.7998 0.34474 1.4551 0.76563 1.4551 1.2945 0 4.2368 9.5445 4.2031 13.635-0.0657 7.9866-3.7074 9.3735-7.5215 2.8652-5.7411-9.7965-18.881 0.50894-13.309 10.438 7.7582 13.822 32.186-2.88 27.836-19.033-10.542-39.152-66.098-44.006-103.83-9.0723-4.1038 3.7994-16.818 13.671-21.504 16.695-3.51 2.2654-16.266 7.7702-21.641 9.3398-23.92 6.9857-26.01 6.8258-18.445-1.4102 27.568-30.016 23.64-70.984-8.2559-86.119-5.1504-2.444-13.115-11.743-13.814-16.127-1.2608-7.9061-4.9209-9.4565-9.5508-4.0449-4.1119 4.8061-4.5061 8.2884-1.6777 14.834 3.1893 7.381 2.8773 8.0446-6.3281 13.48-23.965 14.152-23.027 43.933 1.6816 53.389 13.932 5.3316 28.76-5.1842 25.305-17.945-3.5383-13.066-16.085-12.826-22.883 0.4375-3.0872 6.0235-7.5663 6.0399-9.4297 0.0352-0.49433-1.593-1.5068-4.3138-2.25-6.0469-6.9726-16.261 21.208-34.128 39.051-24.758 21.592 11.339 28.119 38.991 13.041 55.252-1.3437 1.4492-2.4434 2.9379-2.4434 3.3066 0 1.9205-8.4306 10.917-12.943 13.812-12.847 8.2437-48.666 9.9422-45.516 2.1582 4.8482-11.98-10.233-19.905-17.119-8.9961-4.5086 7.1421-14.073 3.6339-31.156-11.428-14.014-12.356-14.013-10.285-0.0137-28.447 9.7191-12.61 12.883-13.24 18.756-3.7383 5.523 8.9363 7.9154 6.754 8.2988-7.5703 1.054-39.375 47.725-76.169 100.19-78.988 9.35-0.50238 18.298-1.1485 19.885-1.4355 1.3542-0.24495 2.6239-0.34269 3.7871-0.32227zm321.26 0c1.1632-0.0204 2.4309 0.0773 3.7852 0.32227 1.5869 0.28704 10.535 0.93316 19.885 1.4355 52.468 2.8192 99.139 39.613 100.19 78.988 0.38344 14.324 2.7759 16.507 8.2988 7.5703 5.8726-9.5021 9.0368-8.8714 18.756 3.7383 13.999 18.163 14 16.092-0.0137 28.447-17.083 15.062-26.646 18.57-31.154 11.428-6.8864-10.909-21.969-2.9836-17.121 8.9961 3.1502 7.784-32.669 6.0855-45.516-2.1582-4.5128-2.8958-12.943-11.892-12.943-13.812 0-0.36873-1.0996-1.8575-2.4434-3.3066-15.078-16.261-8.5509-43.913 13.041-55.252 17.842-9.3699 46.023 8.497 39.051 24.758-0.74317 1.7331-1.7557 4.4538-2.25 6.0469-1.8634 6.0048-6.3424 5.9883-9.4297-0.0352-6.7979-13.263-19.345-13.503-22.883-0.4375-3.4558 12.761 11.374 23.277 25.307 17.945 24.709-9.4555 25.645-39.237 1.6797-53.389-9.2054-5.4358-9.5174-6.0995-6.3281-13.48 2.8283-6.5456 2.4341-10.028-1.6777-14.834-4.6299-5.4116-8.29-3.8612-9.5508 4.0449-0.69915 4.3842-8.6641 13.683-13.814 16.127-31.896 15.136-35.822 56.103-8.2539 86.119 7.5643 8.2359 5.4724 8.3958-18.447 1.4102-5.3746-1.5696-18.131-7.0744-21.641-9.3398-4.6855-3.0241-17.4-12.896-21.504-16.695-37.732-34.934-93.288-30.079-103.83 9.0723-4.3496 16.153 20.078 32.856 27.836 19.033 5.5728-9.9286-7.5674-20.234-13.309-10.438-3.814 6.5082-7.4535 5.1213-7.5195-2.8652-0.0337-4.0902 2.9067-13.635 4.2012-13.635 0.4209 0 0.76562-0.65528 0.76562-1.4551 0-1.7851 7.564-7.6705 13.631-10.607 9.6478-4.6704 26.316-1.4756 41.758 8.0059 17.92 11.003 19.219 13.37 9.752 17.797-6.0483 2.8283-7.6406 5.7784-7.6406 14.16 0 7.4999 3.6886 10.739 5.0254 4.4141 1.385-6.5534 4.7521-7.1992 19.48-3.7383 8.9691 2.1076 11.78 1.5752 16.307-3.0859 4.0539-4.1742 5.3054-4.2652 12.588-0.91406 10.378 4.7756 11.576 5.3012 21.1 9.2617 18.953 7.8814 29.436 8.8708 62.5 5.8945 31.317-2.819 56.302-12.912 71-28.682 9.7744-10.488 13.127-11.223 20.625-4.5215 1.994 1.7823 5.7065 4.4606 8.25 5.9512 6.4579 3.7845 6.4653 7.0475 0.0234 10.465-5.4352 2.8834-9.8364 8.69-12.133 14.408-1.3943 1.5497-1.9009 3.9272-1.6777 6.6816-0.22319 2.7549 0.28287 5.132 1.6777 6.6816 2.2966 5.7176 6.6982 11.525 12.133 14.408 6.4418 3.4174 6.4344 6.6803-0.0234 10.465-2.5435 1.4906-6.256 4.167-8.25 5.9492-7.4977 6.7017-10.851 5.968-20.625-4.5195-14.698-15.77-39.683-25.865-71-28.684-33.064-2.9763-43.547-1.9868-62.5 5.8945-9.5239 3.9605-10.722 4.4862-21.1 9.2617-7.2825 3.3511-8.534 3.2602-12.588-0.91407-4.5268-4.6611-7.3375-5.1935-16.307-3.0859-14.728 3.4609-18.095 2.8151-19.48-3.7383-1.3368-6.3252-5.0254-3.0839-5.0254 4.416 0 8.3818 1.5923 11.33 7.6406 14.158 9.4668 4.4269 8.1686 6.7938-9.752 17.797-15.442 9.4815-32.11 12.678-41.758 8.0078-6.0669-2.937-13.631-8.8243-13.631-10.609 0-0.7998-0.34472-1.4551-0.76562-1.4551-1.2945 0-4.2349-9.5426-4.2012-13.633 0.066-7.9866 3.7055-9.3754 7.5195-2.8672 5.7412 9.7965 18.881-0.50894 13.309-10.438-7.7582-13.822-32.186 2.88-27.836 19.033 10.542 39.152 66.098 44.006 103.83 9.0723 4.1038-3.7994 16.818-13.671 21.504-16.695 3.5101-2.2654 16.266-7.7702 21.641-9.3398 23.92-6.9857 26.012-6.8258 18.447 1.4102-27.568 30.016-23.642 70.984 8.2539 86.119 5.1504 2.444 13.115 11.743 13.814 16.127 1.2608 7.9061 4.9209 9.4565 9.5508 4.0449 4.1119-4.8061 4.5061-8.2884 1.6777-14.834-3.1893-7.381-2.8773-8.0446 6.3281-13.48 23.965-14.152 23.029-43.933-1.6797-53.389-13.932-5.3316-28.762 5.1861-25.307 17.947 3.5383 13.066 16.085 12.826 22.883-0.4375 3.0872-6.0235 7.5663-6.0419 9.4297-0.0371 0.49433 1.593 1.5068 4.3157 2.25 6.0488 6.9726 16.261-21.208 34.126-39.051 24.756-21.592-11.339-28.119-38.991-13.041-55.252 1.3437-1.4492 2.4434-2.9379 2.4434-3.3066 0-1.9205 8.4306-10.917 12.943-13.812 12.847-8.2437 48.666-9.9422 45.516-2.1582-4.8482 11.98 10.235 19.905 17.121 8.9961 4.5086-7.1421 14.071-3.6339 31.154 11.428 14.014 12.356 14.013 10.285 0.0137 28.447-9.7191 12.61-12.883 13.24-18.756 3.7383-5.523-8.9363-7.9154-6.752-8.2988 7.5723-1.054 39.375-47.725 76.167-100.19 78.986-9.35 0.50238-18.298 1.1485-19.885 1.4356-10.834 1.9596-16.18-5.4393-6.0078-8.3144 2.2584-0.63831 5.6864-2.2353 7.6192-3.5469s5.5538-3.58 8.0469-5.041c2.4931-1.4611 6.7151-4.791 9.3809-7.4004 9.9906-9.7793 14.18-11.01 19.346-5.6797 5.6034 5.7813 5.8982 4.995 2.7656-7.377-1.6081-6.351-4.0378-8.6372-10.156-9.5547-6.3198-0.9477-10.457-4.1654-12.975-10.094-10.431-24.561-32.461-36.444-53.682-28.957-23.208 8.1884-18.194 49.174 5.2793 43.154 4.8702-1.2488 7.1747-8.2196 4.1465-12.543-1.6992-2.426-1.8353-2.4321-12.541-0.56836-5.1763 0.90114-7.7019-2.73-5.9551-8.5605 7.3522-24.539 46.079-13.996 46.107 12.553 0.046 43.24-52.662 51.193-98.225 14.818-5.4223-4.3288-11.024-8.8002-12.447-9.9356-4.0259-3.2114-1.7264-6.9889 3.5176-5.7793 5.5381 1.2775 23.419 0.89498 26.971-0.57617 7.5193-3.1146 13.791-19.483 9.2168-24.057-2.7805-2.7805-5.0234-1.5823-5.0234 2.6836 0 21.77-27.334 20.146-33.373-1.9824-3.5925-13.163-8.489-16.666-23.34-16.701l-9.2129-0.0234-3.8555-5.75c-9.9147-14.787-11.785-31.25-3.5508-31.25 5.1934 0 8.7372-3.9588 7.8809-8.8047-1.22-6.904-6.416-11.204-10.848-8.9766-5.343 2.6862-7.133 0.86981-8.2012-8.3281-0.12217-1.052-0.25245-2.0247-0.39062-2.9238 0.13827-0.89963 0.26837-1.8712 0.39062-2.9238 1.0682-9.1979 2.8582-11.016 8.2012-8.3301 4.4316 2.2279 9.6276-2.0725 10.848-8.9766 0.8563-4.8459-2.6875-8.8047-7.8809-8.8047-8.2344 0-6.3639-16.463 3.5508-31.25l3.8555-5.75 9.2129-0.0215c14.851-0.0354 19.747-3.5402 23.34-16.703 6.0394-22.129 33.373-23.75 33.373-1.9805 0 4.2659 2.2429 5.4622 5.0234 2.6816 4.5739-4.5739-1.6975-20.942-9.2168-24.057-3.5517-1.4712-21.433-1.8517-26.971-0.57422-5.244 1.2096-7.5435-2.5698-3.5176-5.7812 1.4232-1.1353 7.025-5.6067 12.447-9.9356 45.562-36.374 98.271-28.422 98.225 14.818-0.0285 26.549-38.755 37.092-46.107 12.553-1.7468-5.8305 0.77877-9.4617 5.9551-8.5606 10.706 1.8637 10.842 1.8576 12.541-0.56836 3.0282-4.3234 0.72371-11.294-4.1465-12.543-23.474-6.0192-28.488 34.968-5.2793 43.156 21.221 7.4872 43.251-4.3979 53.682-28.959 2.5178-5.9284 6.6548-9.146 12.975-10.094 6.1185-0.91753 8.5482-3.2037 10.156-9.5547 3.1326-12.372 2.8378-13.158-2.7656-7.377-5.1662 5.3302-9.3551 4.0996-19.346-5.6797-2.6658-2.6094-6.8878-5.9393-9.3809-7.4004-2.4931-1.461-6.1141-3.7294-8.0469-5.041s-5.3607-2.9066-7.6192-3.5449c-8.9008-2.5158-5.9196-8.4957 2.2227-8.6387zm-511.9 10.885c0.93963-0.0319 1.4629 0.96234 1.4629 2.9863 0 1.6862-0.53131 4.0487-1.1797 5.25-5.259 9.744-1.9271 46.467 6.2695 69.117l3.2324 8.9336-2.7578 5.2676c-2.9568 5.6473-18.088 21.033-23.371 23.766-10.305 5.3287-20.963-12.314-18.971-31.4 1.5488-14.836-0.46071-28.686-5.5762-38.42-2.0234-3.8502-1.3018-5.014 7.5586-12.18 4.0125-3.245 8.8542-7.7001 10.76-9.9004 1.9055-2.2003 6.2866-6.925 9.7363-10.5s7.4438-7.9625 8.875-9.75c1.6658-2.0806 3.0213-3.138 3.9609-3.1699zm702.53 0c0.93963 0.0319 2.2951 1.0893 3.9609 3.1699 1.4312 1.7875 5.4253 6.175 8.875 9.75s7.8308 8.2997 9.7363 10.5 6.7473 6.6554 10.76 9.9004c8.8604 7.1657 9.584 8.3294 7.5606 12.18-5.1154 9.7342-7.127 23.584-5.5782 38.42 1.9926 19.087-8.666 36.729-18.971 31.4-5.2835-2.7322-20.414-18.118-23.371-23.766l-2.7578-5.2676 3.2344-8.9336c8.1966-22.65 11.527-59.373 6.2676-69.117-0.64837-1.2013-1.1797-3.5638-1.1797-5.25 0-2.024 0.52326-3.0182 1.4629-2.9863zm-775.46 37.293c3.9836 0.0353 7.3617 0.78296 9.3398 2.3848 4.0196 3.2548 2.0192 5.1593-11.049 10.512-25.853 10.589-39.399 8.2886-24.943-4.2344 6.1899-5.3624 17.888-8.7398 26.652-8.6621zm848.38 0c8.7639-0.0777 20.462 3.2997 26.652 8.6621 14.455 12.523 0.9111 14.823-24.941 4.2344-13.068-5.3524-15.068-7.2569-11.049-10.512 1.9781-1.6018 5.3543-2.3494 9.3379-2.3848zm-826.07 12.711c1.3097 0.0353 2.2476 0.42604 2.8477 1.166 5.2386 6.4603 5.4986 23.016 0.52539 33.408-5.9762 12.488-29.544 15.5-24.389 3.1172 5.0711-12.18-2.9827-21.437-13.359-15.355-8.4625 4.9594-7.6496 17.946 1.7734 28.342 5.067 5.5903 20.072 4.9551 31.514-1.334 8.0677-4.4346 9.166-4.0816 9.166 2.957 0 5.813 2.2104 12.089 6.4648 18.35 4.501 6.6238 2.1432 8.5304-13.965 11.291-40.165 6.8835-62.523-10.044-67.002-50.729-1.3776-12.513 1.1335-15.297 13.807-15.297 10.732 0 24.18-3.8357 38.195-10.895 6.8569-3.4535 11.54-5.0992 14.422-5.0215zm803.76 0c2.8814-0.0777 7.565 1.568 14.422 5.0215 14.015 7.0588 27.464 10.895 38.195 10.895 12.673 0 15.186 2.7836 13.809 15.297-4.4791 40.685-26.839 57.612-67.004 50.729-16.108-2.7606-18.466-4.6672-13.965-11.291 4.2545-6.261 6.4648-12.537 6.4648-18.35 0-7.0386 1.0982-7.3916 9.166-2.957 11.442 6.2891 26.447 6.9243 31.514 1.334 9.423-10.396 10.236-23.382 1.7734-28.342-10.377-6.0811-18.43 3.1756-13.359 15.355 5.1555 12.383-18.412 9.3703-24.389-3.1172-4.9732-10.392-4.7113-26.948 0.5273-33.408 0.6001-0.73998 1.536-1.1307 2.8457-1.166zm-820.71 114.48c5.4061-0.0869 11.248 0.40687 17.523 1.4824 16.108 2.7606 18.466 4.6672 13.965 11.291-4.2544 6.261-6.4648 12.537-6.4648 18.35 0 7.0386-1.0983 7.3936-9.166 2.959-11.442-6.2891-26.447-6.9243-31.514-1.334-9.4231 10.396-10.236 23.382-1.7734 28.342 10.377 6.0811 18.43-3.1776 13.359-15.357-5.1555-12.383 18.412-9.3703 24.389 3.1172 4.9732 10.392 4.7132 26.948-0.52539 33.408-1.9202 2.3679-7.2959 1.1678-17.27-3.8555-14.015-7.0588-27.463-10.895-38.195-10.895-12.673 0-15.184-2.7817-13.807-15.295 3.7792-34.328 20.286-51.744 49.478-52.213zm837.65 0c29.193 0.4693 45.701 17.885 49.48 52.213 1.3776 12.513-1.1354 15.295-13.809 15.295-10.732 0-24.18 3.8357-38.195 10.895-9.9737 5.0233-15.347 6.2234-17.268 3.8555-5.2386-6.4603-5.5005-23.016-0.5273-33.408 5.9762-12.488 29.544-15.5 24.389-3.1172-5.0711 12.18 2.9826 21.439 13.359 15.357 8.4625-4.9594 7.6496-17.946-1.7734-28.342-5.067-5.5903-20.072-4.9551-31.514 1.334-8.0678 4.4346-9.166 4.0796-9.166-2.959 0-5.813-2.2103-12.089-6.4648-18.35-4.501-6.6238-2.1432-8.5304 13.965-11.291 6.2758-1.0756 12.117-1.5693 17.523-1.4824zm-790.29 17.145c1.2738-0.01 2.5674 0.2968 3.8555 0.96289 5.2835 2.7322 20.414 18.12 23.371 23.768l2.7578 5.2656-3.2324 8.9336c-8.1966 22.65-11.528 59.375-6.2695 69.119 0.64837 1.2013 1.1797 3.5638 1.1797 5.25 0 4.048-2.0922 3.9756-5.4238-0.18554-1.4312-1.7875-5.4253-6.175-8.875-9.75s-7.8308-8.2997-9.7363-10.5-6.7473-6.6554-10.76-9.9004c-8.8604-7.1657-9.582-8.3294-7.5586-12.18 5.1155-9.7342 7.125-23.584 5.5762-38.42-1.7435-16.701 6.199-32.295 15.115-32.363zm742.93 0c8.9162 0.0679 16.859 15.662 15.115 32.363-1.5488 14.836 0.4628 28.686 5.5782 38.42 2.0234 3.8502 1.2998 5.014-7.5606 12.18-4.0125 3.245-8.8542 7.7001-10.76 9.9004-1.9055 2.2003-6.2866 6.925-9.7363 10.5s-7.4438 7.9625-8.875 9.75c-3.3316 4.1612-5.4238 4.2335-5.4238 0.18554 0-1.6862 0.53132-4.0487 1.1797-5.25 5.259-9.744 1.929-46.469-6.2676-69.119l-3.2344-8.9336 2.7578-5.2656c2.9568-5.6473 18.088-21.035 23.371-23.768 1.2881-0.66609 2.5817-0.97259 3.8555-0.96289zm-705.75 41.82c2.3115-0.0356 5.3693 2.2886 9.8789 6.5723 10.106 9.5996 10.967 12.998 4.123 16.262-3.819 1.8212-9.5176 8.9402-9.5176 11.891 0 3.0318 2.8541 3.3246 5.8106 0.5957 7.6357-7.0482 20.902-2.5062 38.689 13.246 3.85 3.4095 8.8 7.3731 11 8.8086s5.0121 3.5732 6.248 4.75c2.9838 2.8411 29.401 16.114 37.414 18.797 10.226 3.4243 8.3607 7.0732-5.9043 11.551-13.172 4.1345-30.17 18.678-35.729 30.57-2.0567 4.4-4.0753 8.675-4.4863 9.5-1.7114 3.4349-5.1628 2.3271-10.453-3.3574-3.9866-4.2837-6.1357-5.7553-9.5195-6.5156-6.6505-1.4943-8.4035-3.8447-8.8457-11.855-0.57671-10.448-3.4526-16.661-11.254-24.316-15.933-15.634-3.5943-35.661 15.375-24.955 7.968 4.4969 10.999 2.5151 4.9043-3.207-12.825-12.041-31.34-9.4096-39.295 5.5859-7.7638 14.635-11.981-18.74-5.9863-47.379 2.3854-11.397 4.1686-16.491 7.5469-16.543zm668.58 0c3.3783 0.052 5.1596 5.1463 7.5449 16.543 5.9943 28.639 1.7775 62.014-5.9863 47.379-7.9551-14.996-26.469-17.627-39.295-5.5859-6.0948 5.7221-3.0637 7.7039 4.9043 3.207 18.969-10.706 31.31 9.3213 15.377 24.955-7.8013 7.655-10.677 13.868-11.254 24.316-0.44218 8.0108-2.1971 10.361-8.8477 11.855-3.3838 0.7603-5.5329 2.2319-9.5195 6.5156-5.2904 5.6845-8.7417 6.7923-10.453 3.3574-0.41105-0.825-2.4296-5.1-4.4863-9.5-5.5589-11.892-22.557-26.436-35.729-30.57-14.265-4.4776-16.13-8.1265-5.9043-11.551 8.0129-2.6832 34.432-15.956 37.416-18.797 1.2359-1.1768 4.0461-3.3145 6.2461-4.75s7.15-5.3991 11-8.8086c17.787-15.752 31.056-20.294 38.691-13.246 2.9564 2.7289 5.8086 2.436 5.8086-0.5957 0-2.9504-5.6985-10.069-9.5176-11.891-6.8442-3.2638-5.9828-6.6621 4.123-16.262 4.5096-4.2837 7.5694-6.6078 9.8809-6.5723zm-785.73 17.56c5.285-0.0779 14.24 2.0882 25.551 6.7207 13.068 5.3524 15.068 7.255 11.049 10.51-6.33 5.1258-26.989 1.5225-35.992-6.2774-8.1312-7.0442-7.4024-10.853-0.60742-10.953zm902.9 0c6.795 0.10022 7.5238 3.909-0.6074 10.953-9.0036 7.7999-29.66 11.403-35.99 6.2774-4.0196-3.2548-2.0193-5.1574 11.049-10.51 11.31-4.6325 20.264-6.7986 25.549-6.7207zm-502.23 29.055c0.73539-0.0503 0.40234 0.80189-1.373 2.7637-0.91025 1.0058-1.6543 2.1654-1.6543 2.5781 0 1.2553-10.15 14.493-16.09 20.984-3.0745 3.3598-6.9996 8.1956-8.7227 10.748-2.8114 4.1647-14.361 14.87-16.025 14.854-0.36441-0.004-2.0121-0.90139-3.6621-1.9941-11.901-7.8816-32.188 4.1537-36.686 21.762-2.6782 10.486-4.2499 11.855-20.814 18.148-7.1188 2.7045-8.843 2.6329-10-0.41015-4.3127-11.343 18.18-35.502 39.59-42.521 4.0453-1.3263 5.3467-2.0332 14.121-7.6797 2.8664-1.8446 7.5914-4.5752 10.5-6.0684s9.9012-5.7562 15.537-9.4727c5.6359-3.7165 10.629-6.7578 11.096-6.7578 0.46681 0 3.976-2.5875 7.7988-5.75 7.9788-6.6006 14.767-11.073 16.385-11.184zm101.55 0c1.6178 0.11067 8.4059 4.583 16.385 11.184 3.8228 3.1625 7.334 5.75 7.8008 5.75s5.4598 3.0413 11.096 6.7578c5.6359 3.7165 12.627 7.9795 15.535 9.4727 2.9087 1.4932 7.6337 4.2238 10.5 6.0684 8.7744 5.6465 10.076 6.3533 14.121 7.6797 21.41 7.0196 43.903 31.178 39.59 42.521-1.1569 3.043-2.8812 3.1146-10 0.41015-16.565-6.293-18.134-7.6621-20.812-18.148-4.4971-17.608-24.787-29.643-36.688-21.762-1.65 1.0928-3.2977 1.9905-3.6621 1.9941-1.6639 0.0165-13.214-10.689-16.025-14.854-1.7231-2.5525-5.648-7.3883-8.7226-10.748-5.9398-6.491-16.09-19.729-16.09-20.984 0-0.41277-0.74409-1.5723-1.6543-2.5781-1.7754-1.9618-2.1084-2.814-1.373-2.7637zm-262.76 49.633c2.4222 0.0528 4.7419 0.33292 6.9141 0.86914 8.5444 2.1093 16.741 2.3932 28.77 0.99414 16.643-1.9357 18.784-0.79704 12.186 6.4824-2.3042 2.5422-6.6645 7.4471-9.6895 10.9-7.6955 8.785-12.238 12.148-17.268 12.787-7.8506 0.99706-8.7098 3.7184-2.9004 9.1719 7.0762 6.6427 6.1128 9.2031-4.127 10.986-16.062 2.7971-21.838 1.5071-24.604-5.498-1.5877-4.021-6.197-7.3926-10.107-7.3926-3.1211 0-4.9421 1.4706-9.8203 7.9238-5.8372 7.7218-25.36 0.33102-25.471-9.6426-0.19254-17.301 32.703-38.093 56.117-37.582zm423.96 0c23.414-0.51072 56.31 20.281 56.117 37.582-0.11099 9.9736-19.634 17.364-25.471 9.6426-4.8782-6.4532-6.6993-7.9238-9.8203-7.9238-3.9104 0-8.5197 3.3715-10.107 7.3926-2.766 7.0052-8.5415 8.2951-24.604 5.498-10.24-1.7832-11.201-4.3436-4.125-10.986 5.8094-5.4535 4.9482-8.1748-2.9023-9.1719-5.0294-0.63876-9.5721-4.0021-17.268-12.787-3.025-3.4532-7.3854-8.3582-9.6894-10.9-6.598-7.2795-4.4573-8.4182 12.186-6.4824 12.029 1.3991 20.225 1.1151 28.77-0.99414 2.1722-0.53622 4.4919-0.81631 6.9141-0.86914zm-321.9 6.4219c3.6185-0.0842 7.1181 0.66415 7.1094 2.1484-0.004 0.67702-4.6884 4.268-10.41 7.9805-17.847 11.58-20.61 5.4258-3.7617-8.377 1.3628-1.1165 4.2481-1.6864 7.0625-1.752zm219.84 0c2.8143 0.0655 5.7016 0.63549 7.0644 1.752 16.849 13.803 14.083 19.957-3.7637 8.377-5.7217-3.7125-10.406-7.3034-10.41-7.9805-0.008-1.4843 3.4909-2.2327 7.1094-2.1484zm-250.78 35.408c2.155-0.11288 2.6428 2.4686 2.8476 8.6426 0.33036 9.9548-2.1351 14.263-10.279 17.963-6.3989 2.907-10.213 2.4566-14.1-1.6641-8.1812-8.6746-4.7412-16.325 8.5527-19.02 1.904-0.38592 5.054-1.7374 7-3.002 2.792-1.8142 4.6855-2.8522 5.9785-2.9199zm281.73 0c1.293 0.0677 3.1866 1.1057 5.9785 2.9199 1.946 1.2645 5.096 2.616 7 3.002 13.294 2.6946 16.734 10.345 8.5527 19.02-3.8862 4.1206-7.7007 4.571-14.1 1.6641-8.1442-3.6998-10.61-8.0081-10.279-17.963 0.20488-6.1739 0.69268-8.7554 2.8477-8.6426zm-399.01 16.74c0.59289-0.0221 1.3042 0.054 2.1367 0.25 1.261 0.29684 6.6096 0.94995 11.887 1.4492 5.2772 0.49926 10.04 1.3524 10.584 1.8965 1.615 1.615-0.0213 5.7027-2.7871 6.9629-4.8088 2.191-12.485 1.4347-18.096-1.7832-6.2386-3.5782-7.8748-8.6207-3.7246-8.7754zm516.29 0c4.1502 0.15473 2.514 5.1972-3.7246 8.7754-5.6104 3.2179-13.287 3.9742-18.096 1.7832-2.7659-1.2602-4.4022-5.3478-2.7871-6.9629 0.54408-0.54409 5.3068-1.3972 10.584-1.8965 5.2772-0.49927 10.626-1.1524 11.887-1.4492 0.83252-0.19598 1.5438-0.27211 2.1367-0.25z"/>
</g>
</svg>
