<svg viewBox="0 0 216 216" width="216" height="216" x="0" y="0" xmlns="http://www.w3.org/2000/svg"><defs><pattern id="pattern" x="0" y="0" width="8" height="8" patternUnits="userSpaceOnUse"><polygon points="0,4 0,8 8,0 4,0" fill="#ffffff"></polygon><polygon points="4,8 8,8 8,4" fill="#ffffff"></polygon></pattern><mask id="grating" x="0" y="0" width="1" height="1"><rect x="0" y="0" width="100%" height="100%" fill="url(#pattern)"></rect></mask></defs><g id="horizStripes"><rect fill="#1C0070" height="112" width="100%" x="0" y="0"></rect><rect fill="#101010" height="24" width="100%" x="0" y="112"></rect><rect fill="#880000" height="24" width="100%" x="0" y="136"></rect><rect fill="#E0E0E0" height="8" width="100%" x="0" y="160"></rect><rect fill="#880000" height="24" width="100%" x="0" y="168"></rect><rect fill="#101010" height="24" width="100%" x="0" y="192"></rect></g><g id="vertStripes" mask="url(#grating)"><rect fill="#1C0070" height="100%" width="112" x="0" y="0"></rect><rect fill="#101010" height="100%" width="24" x="112" y="0"></rect><rect fill="#880000" height="100%" width="24" x="136" y="0"></rect><rect fill="#E0E0E0" height="100%" width="8" x="160" y="0"></rect><rect fill="#880000" height="100%" width="24" x="168" y="0"></rect><rect fill="#101010" height="100%" width="24" x="192" y="0"></rect></g></svg>